<?xml version="1.0" encoding="UTF-8"?>
<svg version="1.1" xmlns="http://www.w3.org/2000/svg" width="1000" height="200">
<path d="M0 0 C1.17369141 -0.02513672 1.17369141 -0.02513672 2.37109375 -0.05078125 C5.20207004 0.41852498 5.87634175 0.99166421 7.5625 3.3125 C8.583107 5.6195864 9.50160257 7.88931464 10.375 10.25 C17.88085188 29.56375307 27.3087638 42.53243974 46.5625 51.3125 C47.80997756 51.83162437 49.06005899 52.34453006 50.3125 52.8515625 C50.93705078 53.10687744 51.56160156 53.36219238 52.20507812 53.62524414 C53.97445639 54.33946084 55.75267639 55.03165637 57.53125 55.72265625 C60.89599077 57.48741075 62.48252049 59.16267457 64.5625 62.3125 C65.1875 64.8125 65.1875 64.8125 64.5625 67.3125 C59.62961508 72.2208432 53.96546517 74.60903717 47.625 77.3125 C41.02827701 80.13651519 35.31666761 83.02177582 29.5625 87.3125 C28.9025 87.3125 28.2425 87.3125 27.5625 87.3125 C27.29824219 87.90289062 27.03398437 88.49328125 26.76171875 89.1015625 C25.52146573 91.38815275 24.19709145 92.84456083 22.375 94.6875 C15.49798812 102.36516192 11.69050335 112.6711246 7.80078125 122.10546875 C6.3680749 124.65903054 5.08120384 125.83929587 2.5625 127.3125 C-0.875 127.5 -0.875 127.5 -4.4375 126.3125 C-9.25833158 121.43593626 -11.31874372 113.92147831 -13.88671875 107.73046875 C-15.62459661 103.90013342 -17.68066344 100.57866665 -20.140625 97.1796875 C-21.4375 95.3125 -21.4375 95.3125 -22.5 93.12890625 C-23.74277233 90.72103486 -25.00144621 90.46285873 -27.4375 89.3125 C-28.31664062 88.54679687 -29.19578125 87.78109375 -30.1015625 86.9921875 C-33.48243659 84.1321202 -37.07950626 82.26665675 -41.0625 80.375 C-41.75746582 80.03581543 -42.45243164 79.69663086 -43.16845703 79.34716797 C-45.25501179 78.32902115 -47.34605449 77.32055263 -49.4375 76.3125 C-51.73309542 75.19515894 -54.02341589 74.06821908 -56.3125 72.9375 C-57.25867188 72.47601563 -58.20484375 72.01453125 -59.1796875 71.5390625 C-61.4375 70.3125 -61.4375 70.3125 -63.4375 68.3125 C-64.07426845 62.67255089 -64.07426845 62.67255089 -63.4375 60.3125 C-59.72205971 56.59705971 -55.39676001 54.78298374 -50.625 52.8125 C-49.19347891 52.20176514 -47.76248206 51.58979994 -46.33203125 50.9765625 C-45.31616943 50.5439209 -45.31616943 50.5439209 -44.27978516 50.10253906 C-38.24578789 47.51494098 -33.41157649 44.57599413 -28.4375 40.3125 C-27.7775 40.3125 -27.1175 40.3125 -26.4375 40.3125 C-26.16663574 39.71912842 -25.89577148 39.12575684 -25.61669922 38.5144043 C-24.45668005 36.34831468 -23.24497461 34.8640435 -21.5703125 33.08203125 C-18.30859508 29.36383182 -16.30437108 25.49926731 -14.3125 21 C-13.80275635 19.88612915 -13.80275635 19.88612915 -13.28271484 18.74975586 C-11.0963009 13.93030334 -9.0506612 9.06704662 -7.2265625 4.09765625 C-5.57541761 0.36214528 -3.81106871 0.01877374 0 0 Z " fill="#8480C2" transform="translate(169.4375,19.6875)"/>
<path d="M0 0 C2.60444348 -0.05394705 5.20776998 -0.09364469 7.8125 -0.125 C8.55048828 -0.14175781 9.28847656 -0.15851562 10.04882812 -0.17578125 C13.91246426 -0.21074628 15.70903668 -0.19397555 19 2 C19.7734375 4.08740234 19.7734375 4.08740234 20.375 6.7109375 C22.15857559 13.83362803 24.5722258 20.70121581 27 27.625 C27.87608539 30.13764374 28.75039887 32.65090141 29.625 35.1640625 C30.03806396 36.3487915 30.45112793 37.53352051 30.87670898 38.75415039 C32.0442804 42.12795218 33.1766359 45.51181206 34.29736328 48.90136719 C35.33265452 51.99357133 36.4182111 55.06761188 37.5 58.14379883 C41.318572 69.01380158 45.01950401 79.92226556 48.67507935 90.84799194 C49.22489629 92.49060845 49.7757383 94.1328822 50.3276062 95.77481079 C51.10692797 98.09494226 51.88218585 100.4163912 52.65625 102.73828125 C52.89336197 103.44247192 53.13047394 104.1466626 53.37477112 104.87219238 C55 109.77086299 55 109.77086299 55 112 C55.66 112 56.32 112 57 112 C57.10943436 111.45599548 57.21886871 110.91199097 57.33161926 110.35150146 C58.5192118 104.70682325 60.11130347 99.33248493 62.01171875 93.890625 C62.30081116 93.04978867 62.58990356 92.20895233 62.88775635 91.34263611 C63.81664499 88.64356507 64.7520646 85.94680817 65.6875 83.25 C66.64944404 80.45960258 67.60968847 77.66862407 68.56983948 74.87760925 C69.19691517 73.05516136 69.82454373 71.23290361 70.45274353 69.4108429 C72.65623998 63.0167302 74.81951178 56.61048781 76.9375 50.1875 C79.34521362 42.89586513 81.86807202 35.64999086 84.43603516 28.41333008 C86.82272362 21.63570342 88.99217284 14.79890776 91.04711914 7.91357422 C92.78633473 2.21366527 92.78633473 2.21366527 95 0 C97.74485593 -0.14507695 100.38480543 -0.18652423 103.125 -0.125 C103.87910156 -0.11597656 104.63320313 -0.10695312 105.41015625 -0.09765625 C107.27357254 -0.0740687 109.13682593 -0.03819719 111 0 C112.18810119 3.56430357 111.75377214 4.35866914 110.46508789 7.78833008 C110.10515244 8.76364182 109.74521698 9.73895355 109.37437439 10.74382019 C108.9736824 11.80417984 108.57299042 12.86453949 108.16015625 13.95703125 C107.31749381 16.23977791 106.47657106 18.52316737 105.63720703 20.80712891 C105.19950989 21.99389221 104.76181274 23.18065552 104.31085205 24.40338135 C102.21845201 30.14435343 100.22981512 35.91996654 98.24609375 41.69921875 C97.85112701 42.84657501 97.45616028 43.99393127 97.04922485 45.17605591 C95.43931772 49.85489826 93.8330507 54.53498697 92.22680664 59.21508789 C87.53381748 72.88094348 82.77746908 86.51571724 77.79663086 100.07958984 C71.95103037 115.89355346 71.95103037 115.89355346 67 132 C59.42206122 134.02078368 51.65222995 132.98357209 44 132 C43.68885254 131.0613208 43.37770508 130.1226416 43.05712891 129.15551758 C36.1703162 108.38989154 29.1845425 87.6647864 22 67 C21.27070559 64.89717972 20.54153526 62.79431639 19.8125 60.69140625 C16.62442802 51.50357025 13.41499844 42.32409568 10.15405273 33.16186523 C8.86116501 29.50909201 7.61081213 25.84569246 6.40234375 22.1640625 C6.13631348 21.35428955 5.8702832 20.5445166 5.59619141 19.71020508 C5.09015835 18.16199615 4.58823067 16.61243654 4.09130859 15.0612793 C3.00608028 11.73524843 1.88865819 8.78657401 0.26171875 5.66796875 C-1 3 -1 3 0 0 Z " fill="#6E5BFF" transform="translate(305,39)"/>
<path d="M0 0 C1.03447266 -0.02900391 2.06894531 -0.05800781 3.13476562 -0.08789062 C11.74352398 -0.15796818 19.7357365 1.15057701 26.4375 6.875 C27.4275 8.0815625 27.4275 8.0815625 28.4375 9.3125 C29.19045349 10.0134655 29.19045349 10.0134655 29.95861816 10.72859192 C35.98299917 17.18080841 34.86238384 27.69665232 34.84375 35.83203125 C34.85299968 37.22207348 34.86397594 38.61210518 34.87658691 40.00212097 C34.91929665 45.12071697 34.9306379 50.23928917 34.94281006 55.35803223 C34.9543456 59.70419551 34.97789412 64.04997043 35.01750183 68.3959713 C35.03104137 70.42575421 35.02691008 72.45500743 35.02209473 74.4848175 C35.03220581 75.71677353 35.04231689 76.94872955 35.05273438 78.21801758 C35.05478882 79.30117752 35.05684326 80.38433746 35.05895996 81.50032043 C35.48471795 84.66328283 36.21453139 86.05347179 38.4375 88.3125 C40.68489501 88.75739657 40.68489501 88.75739657 43.0625 88.5 C44.51956293 88.41276484 45.9781783 88.34447717 47.4375 88.3125 C49.10092837 89.97592837 48.79798097 92.0950709 49 94.375 C49.08378906 95.29410156 49.16757812 96.21320313 49.25390625 97.16015625 C49.31449219 97.87042969 49.37507812 98.58070313 49.4375 99.3125 C44.66132793 102.49661471 40.11648476 102.70415412 34.4375 102.3125 C28.90583356 100.43735883 25.29662941 98.28710705 22.1875 93.3125 C21.4375 91.3125 21.4375 91.3125 21.4375 87.3125 C19.28526392 89.38787051 17.3595268 91.41646426 15.5625 93.8125 C10.7577582 99.46513741 4.9383206 101.85841867 -2.296875 102.796875 C-14.49974135 103.72487831 -23.79312315 103.36022437 -33.5625 95.3125 C-39.00690899 89.72481709 -41.66149218 82.41406666 -41.8125 74.6875 C-41.65157126 65.55479404 -39.18267337 59.29433313 -33.18359375 52.41796875 C-24.99625265 45.84125213 -15.43214629 43.83311696 -5.375 41.75 C7.77969171 39.75300229 7.77969171 39.75300229 17.9375 32.125 C18.83730896 27.06357461 18.05293246 22.15879738 16.4375 17.3125 C14.06124655 16.12858777 14.06124655 16.12858777 11.4375 15.3125 C10.4475 14.9825 9.4575 14.6525 8.4375 14.3125 C-3.29854025 13.49990243 -12.70915837 13.99146919 -22.0625 21.875 C-24.33274065 23.96380748 -25.82990355 25.71360532 -27.5625 28.3125 C-29.75 28.3125 -29.75 28.3125 -32.5625 27.3125 C-35.07752616 24.41258857 -37.68756163 21.27179883 -37.43359375 17.29296875 C-33.8414679 9.12611761 -23.29212741 4.54529641 -15.5625 1.3125 C-10.4809089 -0.22181963 -5.26351313 0.04793728 0 0 Z M15.1875 49.125 C9.29259991 52.15788338 2.8890065 53.04174872 -3.5625 54.3125 C-14.84870159 56.53130067 -14.84870159 56.53130067 -23.4375 63.75 C-25.36557711 69.85557753 -26.10943857 77.22733801 -23.17578125 83.078125 C-19.88684394 87.63326336 -16.34430577 89.89977789 -10.80078125 91.05859375 C-3.49144191 91.88775092 3.41577595 90.62265518 9.4375 86.3125 C15.35262076 81.16943315 17.76833134 75.86227823 19.4375 68.3125 C19.61095947 67.68988281 19.78441895 67.06726563 19.96313477 66.42578125 C20.44629375 64.27332413 20.55183871 62.40521 20.53515625 60.203125 C20.53193359 59.44902344 20.52871094 58.69492188 20.52539062 57.91796875 C20.51701172 57.14066406 20.50863281 56.36335938 20.5 55.5625 C20.49548828 54.76972656 20.49097656 53.97695312 20.48632812 53.16015625 C20.47458565 51.21090492 20.45665146 49.26169262 20.4375 47.3125 C18.10841397 47.1501439 18.10841397 47.1501439 15.1875 49.125 Z " fill="#6955FF" transform="translate(850.5625,69.6875)"/>
<path d="M0 0 C9.9525015 7.12075814 16.27296153 17.11419458 19.12280273 28.94702148 C20.04916282 34.66478576 19.90446967 40.46461797 19.91015625 46.2421875 C19.93464844 47.53640625 19.95914063 48.830625 19.984375 50.1640625 C20.02564278 63.80994327 16.57185791 74.7147804 7.3828125 84.87109375 C-0.57964105 92.70449619 -10.3052613 96.94335558 -21.46484375 97.4921875 C-22.23054687 97.53085938 -22.99625 97.56953125 -23.78515625 97.609375 C-36.52384573 97.96877376 -46.85876578 94.56290614 -57.46484375 87.4921875 C-57.46484375 86.8321875 -57.46484375 86.1721875 -57.46484375 85.4921875 C-58.12484375 85.4921875 -58.78484375 85.4921875 -59.46484375 85.4921875 C-59.46484375 84.8321875 -59.46484375 84.1721875 -59.46484375 83.4921875 C-60.12484375 83.4921875 -60.78484375 83.4921875 -61.46484375 83.4921875 C-72.26949948 68.59928366 -74.04928735 51.14829083 -72.12109375 33.3125 C-71.68564886 30.98286986 -71.15148192 28.75938902 -70.46484375 26.4921875 C-70.27019531 25.82574219 -70.07554687 25.15929687 -69.875 24.47265625 C-66.2556093 13.61448415 -59.73245154 4.45096573 -49.58203125 -1.078125 C-34.7088427 -8.01894632 -14.26687999 -8.72744164 0 0 Z M-49.46484375 17.4921875 C-56.47682804 26.92497589 -56.87414951 39.16806139 -56.46484375 50.4921875 C-56.44808594 51.27207031 -56.43132813 52.05195312 -56.4140625 52.85546875 C-55.89742116 62.11072936 -52.99636596 70.61255951 -46.15234375 77.0546875 C-37.30919693 84.00493851 -28.42913855 84.6388518 -17.46484375 83.4921875 C-9.50307337 81.19552297 -4.44971221 76.44457376 -0.25 69.4765625 C3.83424964 61.86038168 3.74329982 54.28584596 3.78515625 45.8046875 C3.80578125 44.77923828 3.82640625 43.75378906 3.84765625 42.69726562 C3.89964132 32.41072084 2.32850361 23.43167442 -4.43359375 15.4375 C-11.43124627 8.73590201 -19.14670671 7.14600201 -28.55859375 7.28515625 C-37.33345585 7.91024723 -43.59761321 10.91871625 -49.46484375 17.4921875 Z " fill="#6955FF" transform="translate(693.46484375,75.5078125)"/>
<path d="M0 0 C2.42279915 2.16102545 3.91448779 3.73777729 4.32421875 7.015625 C2.40460674 10.67202882 -0.35305212 13.51361476 -3.98828125 15.515625 C-6.21875 15.1796875 -6.21875 15.1796875 -7.98828125 14.515625 C-7.98828125 13.855625 -7.98828125 13.195625 -7.98828125 12.515625 C-8.56707031 12.22816406 -9.14585937 11.94070312 -9.7421875 11.64453125 C-11.15225787 10.93581762 -12.55688799 10.21606081 -13.953125 9.48046875 C-22.31491019 5.12571726 -30.11483178 4.30502315 -39.30078125 6.703125 C-42.31472263 7.72495894 -44.07773874 8.58591302 -46.61328125 10.578125 C-48.64825383 14.92556641 -48.72708957 18.80280561 -47.98828125 23.515625 C-45.30232595 28.8875356 -40.34987338 30.48404637 -34.98828125 32.515625 C-31.53948827 33.50137323 -28.05874811 34.27143305 -24.55078125 35.015625 C-14.53880382 37.14896332 -3.93791042 39.42004633 3.01171875 47.515625 C7.89298396 55.22445237 8.66108975 62.49400643 8.01171875 71.515625 C6.21813924 79.45485196 1.82355608 85.56672562 -4.81640625 90.1953125 C-15.35990304 96.60484832 -32.06541185 97.13759331 -43.98828125 94.515625 C-49.94328578 92.48400417 -55.767568 90.06571001 -60.98828125 86.515625 C-60.98828125 85.855625 -60.98828125 85.195625 -60.98828125 84.515625 C-61.97828125 84.185625 -62.96828125 83.855625 -63.98828125 83.515625 C-66.30078125 80.765625 -66.30078125 80.765625 -67.98828125 77.515625 C-67.35186838 73.27287255 -64.50149901 70.64585393 -61.62109375 67.65234375 C-59.98828125 66.515625 -59.98828125 66.515625 -55.98828125 66.515625 C-51.98828125 70.73784722 -51.98828125 70.73784722 -51.98828125 73.515625 C-51.12203125 73.94681641 -51.12203125 73.94681641 -50.23828125 74.38671875 C-48.81735622 75.09964815 -47.40012874 75.82003988 -45.98828125 76.55078125 C-44.99828125 77.05931641 -44.99828125 77.05931641 -43.98828125 77.578125 C-42.99828125 78.09052734 -42.99828125 78.09052734 -41.98828125 78.61328125 C-34.79225553 81.85992567 -24.8650099 81.80872992 -17.42578125 79.390625 C-13.62492103 77.31742852 -10.73313026 75.53039332 -8.98828125 71.515625 C-8.24690492 66.66103578 -8.43173426 62.25947224 -9.92578125 57.578125 C-15.45095007 52.05295618 -23.78611988 50.71469326 -31.17578125 49.203125 C-42.40846672 46.68926088 -54.28880507 43.7028007 -60.97265625 33.5078125 C-64.84215656 25.91763881 -65.41122234 17.30645488 -63.37109375 9.00390625 C-60.59152308 2.74372275 -55.38805649 -1.8724126 -49.26953125 -4.7734375 C-33.32033083 -10.86392887 -14.04629332 -10.48642723 0 0 Z " fill="#6B58FF" transform="translate(544.98828125,77.484375)"/>
<path d="M0 0 C0.59720137 5.82271337 -1.471757 9.9209404 -4 15 C-5.0725 14.67 -6.145 14.34 -7.25 14 C-15.08228434 12.08359 -23.26932697 11.59024847 -30.38671875 15.8046875 C-35.7956493 19.81227284 -38.29851646 25.81504232 -39.70849609 32.21679688 C-41.39037927 45.60466166 -41.45186231 59.02231302 -41.625 72.5 C-41.66326602 74.98048117 -41.70232245 77.46095027 -41.7421875 79.94140625 C-41.83723277 85.96083728 -41.92159896 91.98033013 -42 98 C-47.28 98 -52.56 98 -58 98 C-58 65 -58 32 -58 -2 C-52.72 -2 -47.44 -2 -42 -2 C-42.03255208 1.28776042 -42.06510417 4.57552083 -42.09765625 7.86328125 C-42.14899898 11.03059195 -42.14899898 11.03059195 -41 14 C-40.74347656 13.41992188 -40.48695313 12.83984375 -40.22265625 12.2421875 C-36.67692949 5.00747229 -32.26689129 0.86499757 -24.6171875 -1.84375 C-16.45424834 -3.83855185 -7.69673043 -3.42076908 0 0 Z " fill="#6F5CFF" transform="translate(798,73)"/>
<path d="M0 0 C4.95 0 9.9 0 15 0 C15 33 15 66 15 100 C7.125 101.125 7.125 101.125 3.0625 100.5625 C2.29035156 100.46066406 1.51820313 100.35882813 0.72265625 100.25390625 C-0.13005859 100.12822266 -0.13005859 100.12822266 -1 100 C-1.0231211 87.10927745 -1.04091389 74.2185598 -1.05181217 61.32782078 C-1.05704151 55.34280734 -1.06414008 49.35780804 -1.07543945 43.37280273 C-1.08626653 37.60216571 -1.09227645 31.83154232 -1.09487724 26.06089592 C-1.09673182 23.85397057 -1.10035304 21.647046 -1.10573006 19.44012642 C-1.1129381 16.36053959 -1.11399104 13.28100986 -1.11352539 10.20141602 C-1.11712067 9.27928818 -1.12071594 8.35716034 -1.12442017 7.40708923 C-1.11405216 1.11405216 -1.11405216 1.11405216 0 0 Z " fill="#705DFF" transform="translate(439,71)"/>
<path d="M0 0 C3.1875 1.125 3.1875 1.125 4.26171875 2.91796875 C4.90272867 4.48938969 5.52941205 6.06670242 6.14453125 7.6484375 C10.35816586 17.65384703 18.73069552 22.63301787 28.1875 27.125 C29.1875 28.125 29.1875 28.125 29.25 30.6875 C29.229375 31.491875 29.20875 32.29625 29.1875 33.125 C27.86685547 33.81335938 27.86685547 33.81335938 26.51953125 34.515625 C25.35808594 35.12921875 24.19664062 35.7428125 23 36.375 C21.85144531 36.97828125 20.70289063 37.5815625 19.51953125 38.203125 C14.92883219 40.85098425 11.27966913 43.39744821 8.5625 48 C8.15128906 48.6909375 7.74007812 49.381875 7.31640625 50.09375 C6.32931018 51.86983982 5.40871928 53.68256143 4.5 55.5 C3.1875 58.125 3.1875 58.125 1.1875 60.125 C-1.23828125 60.11328125 -1.23828125 60.11328125 -3.8125 59.125 C-5.54296875 56.54296875 -5.54296875 56.54296875 -7 53.3125 C-7.48855469 52.25417969 -7.97710937 51.19585937 -8.48046875 50.10546875 C-9.26795055 48.34344935 -10.04556987 46.57687126 -10.80078125 44.80078125 C-11.77539101 42.7769751 -11.77539101 42.7769751 -14.8125 42.125 C-14.8125 41.465 -14.8125 40.805 -14.8125 40.125 C-15.616875 39.898125 -16.42125 39.67125 -17.25 39.4375 C-21.72535739 37.78868412 -25.69971318 35.51955588 -29.8125 33.125 C-30.03515625 30.78515625 -30.03515625 30.78515625 -29.8125 28.125 C-28.30859375 26.68359375 -28.30859375 26.68359375 -26.25 25.5625 C-25.51910156 25.14613281 -24.78820312 24.72976562 -24.03515625 24.30078125 C-22.67301976 23.58021344 -21.30671553 22.8673759 -19.93359375 22.16796875 C-11.73043998 17.85534876 -8.30112012 11.71609116 -4.79296875 3.3828125 C-3.38937784 0.15063902 -3.38937784 0.15063902 0 0 Z " fill="#C1759D" transform="translate(236.8125,120.875)"/>
<path d="M0 0 C1.39456452 0.00667256 2.78911118 0.01863093 4.18359375 0.03515625 C4.89451172 0.03966797 5.60542969 0.04417969 6.33789062 0.04882812 C8.09899388 0.06064761 9.86005411 0.07858362 11.62109375 0.09765625 C12.41310219 2.88593745 12.73748543 5.32840682 12.7033844 8.22320557 C12.69634491 9.03646301 12.68930542 9.84972046 12.68205261 10.68762207 C12.6691066 11.57091187 12.65616058 12.45420166 12.64282227 13.36425781 C12.63321472 14.30118469 12.62360718 15.23811157 12.6137085 16.20343018 C12.58074328 19.29845757 12.54040136 22.39334273 12.5 25.48828125 C12.47569647 27.63490295 12.45185303 29.7815299 12.42845154 31.92816162 C12.36563382 37.57692451 12.29656052 43.22559432 12.22619629 48.87426758 C12.15549203 54.63879153 12.09068757 60.40338146 12.02539062 66.16796875 C11.89640806 77.47793708 11.76081858 88.78781588 11.62109375 100.09765625 C6.39363516 101.30399285 1.85581061 100.85378202 -3.37890625 100.09765625 C-3.53246951 87.20699346 -3.68065129 74.31628131 -3.82186985 61.42547703 C-3.88760699 55.44043644 -3.95523192 49.45542934 -4.02709961 43.47045898 C-4.09632478 37.69986628 -4.16068465 31.92923835 -4.22160149 26.15855217 C-4.24576717 23.95160879 -4.27171717 21.74468423 -4.29944038 19.53778267 C-4.33782759 16.45824253 -4.3699978 13.37869785 -4.40063477 10.29907227 C-4.41358078 9.37694443 -4.42652679 8.45481659 -4.43986511 7.50474548 C-4.4578838 5.36902842 -4.42420939 3.2329688 -4.37890625 1.09765625 C-3.37890625 0.09765625 -3.37890625 0.09765625 0 0 Z " fill="#6753FF" transform="translate(582.37890625,70.90234375)"/>
<path d="M0 0 C4.37289663 2.38521635 4.37289663 2.38521635 6 5 C6.85831771 8.83650734 6.86392031 12.16419383 6 16 C3.81197135 19.40856164 0.85643597 20.70844733 -2.9375 22 C-7.07387587 22 -9.45703791 21.13914692 -13 19 C-15.35549275 15.24593343 -16.26132807 12.18974516 -16 7.8125 C-14.8515323 3.4339669 -13.82933588 2.27936659 -10 0 C-6.14217025 -1.28594325 -3.95337324 -0.93808857 0 0 Z " fill="#7563FF" transform="translate(451,32)"/>
<path d="M0 0 C3.27788869 2.44098094 4.69507248 4.04456044 5.9375 7.9375 C6.01079954 11.52917743 5.55211087 13.75467727 4 17 C0.61257371 20.48152147 -2.14183124 21.7975763 -7 22 C-10.9903416 20.95491053 -13.71941131 19.46311617 -16 16 C-16.62861956 12.22828265 -16.6588315 8.7687395 -16 5 C-11.65374002 -0.8733243 -6.93903263 -1.96132501 0 0 Z " fill="#7361FF" transform="translate(592,32)"/>
<path d="M0 0 C0.66 0.33 1.32 0.66 2 1 C-2.89786691 4.37645866 -7.47288558 6.71883422 -13.21484375 8.32421875 C-15.20626764 8.84739691 -15.20626764 8.84739691 -16 11 C-19.5 12.5 -19.5 12.5 -23 14 C-24.20768804 16.11574885 -24.20768804 16.11574885 -24.3125 19.25 C-22.66943584 23.94446903 -21.28928096 24.28208849 -16.9375 26.4375 C-14.96947216 27.31702703 -12.99325542 28.17924777 -11 29 C-11.66 29.33 -12.32 29.66 -13 30 C-15.75 28.85546875 -15.75 28.85546875 -19 27.1875 C-20.0725 26.64480469 -21.145 26.10210937 -22.25 25.54296875 C-25 24 -25 24 -27 22 C-27.63676845 16.36005089 -27.63676845 16.36005089 -27 14 C-23.26151343 10.25432403 -18.8697799 8.42379485 -14.0625 6.4375 C-12.6777471 5.8543781 -11.29362175 5.26976349 -9.91015625 4.68359375 C-9.24902832 4.40628418 -8.58790039 4.12897461 -7.90673828 3.84326172 C-6.10822946 3.04786486 -4.36154139 2.13815183 -2.62109375 1.22265625 C-1.32365234 0.61744141 -1.32365234 0.61744141 0 0 Z " fill="#E9B09C" transform="translate(133,66)"/>
<path d="M0 0 C1.21816406 0.03480469 1.21816406 0.03480469 2.4609375 0.0703125 C3.68683594 0.09738281 3.68683594 0.09738281 4.9375 0.125 C5.87722656 0.15980469 5.87722656 0.15980469 6.8359375 0.1953125 C3.60802195 2.3472562 2.55192941 2.39617693 -1.1640625 2.1953125 C-2.1540625 4.5053125 -3.1440625 6.8153125 -4.1640625 9.1953125 C-4.8240625 9.1953125 -5.4840625 9.1953125 -6.1640625 9.1953125 C-6.1021875 10.0615625 -6.0403125 10.9278125 -5.9765625 11.8203125 C-6.1921372 15.70065713 -7.14255417 17.90100262 -9.1640625 21.1953125 C-10.1540625 21.8553125 -11.1440625 22.5153125 -12.1640625 23.1953125 C-4.96065587 0.44771262 -4.96065587 0.44771262 0 0 Z " fill="#E3BAC4" transform="translate(167.1640625,19.8046875)"/>
<path d="M0 0 C0.33 0 0.66 0 1 0 C0.6545369 5.94637555 -0.7144481 8.41967989 -5.0625 12.4375 C-5.98160156 13.30246094 -6.90070313 14.16742188 -7.84765625 15.05859375 C-8.55792969 15.69925781 -9.26820313 16.33992188 -10 17 C-10 13.28070255 -9.1865415 12.81071748 -6.6875 10.1875 C-3.71152952 6.92839062 -1.72022368 4.04758513 0 0 Z " fill="#D6B0CA" transform="translate(154,43)"/>
<path d="M0 0 C0.99 0.33 1.98 0.66 3 1 C0.25 6.75 0.25 6.75 -2 9 C-4.625 8.625 -4.625 8.625 -7 8 C-7.33 6.68 -7.66 5.36 -8 4 C-6.02 4.99 -4.04 5.98 -2 7 C-2 6.34 -2 5.68 -2 5 C-1.34 5 -0.68 5 0 5 C-0.2784375 4.0409375 -0.2784375 4.0409375 -0.5625 3.0625 C-0.706875 2.381875 -0.85125 1.70125 -1 1 C-0.67 0.67 -0.34 0.34 0 0 Z " fill="#EFBCA1" transform="translate(240,172)"/>
<path d="M0 0 C-1.14541896 2.29083792 -2.35992889 3.29432988 -4.3125 4.9375 C-5.25222656 5.72833984 -5.25222656 5.72833984 -6.2109375 6.53515625 C-8.10019688 8.08203893 -10.01829141 9.57316982 -12 11 C-10.18999153 4.8459712 -6.57254582 0 0 0 Z " fill="#A69AFF" transform="translate(489,144)"/>
<path d="M0 0 C2.31 0 4.62 0 7 0 C4.19195732 2.96404505 1.81684226 5.44499019 -2 7 C-1.34 4.69 -0.68 2.38 0 0 Z " fill="#9A91D3" transform="translate(232,123)"/>
<path d="M0 0 C1.27350058 3.01009228 0.99687398 4.00781505 -0.25 7.125 C-2 10 -2 10 -5 12 C-4.54738642 10.56068883 -4.08767021 9.12361001 -3.625 7.6875 C-3.24214844 6.48673828 -3.24214844 6.48673828 -2.8515625 5.26171875 C-2 3 -2 3 0 0 Z " fill="#D8AABF" transform="translate(160,31)"/>
<path d="M0 0 C0.66 0 1.32 0 2 0 C1 2 0 4 -1 6 C0.32 6 1.64 6 3 6 C3 6.99 3 7.98 3 9 C0.525 8.01 0.525 8.01 -2 7 C-2.125 4.625 -2.125 4.625 -2 2 C-1.34 1.34 -0.68 0.68 0 0 Z " fill="#C199C3" transform="translate(209,147)"/>
<path d="M0 0 C0.66 0.33 1.32 0.66 2 1 C-0.64 3.64 -3.28 6.28 -6 9 C-6.33 8.34 -6.66 7.68 -7 7 C-4.66666667 4.66666667 -2.33333333 2.33333333 0 0 Z " fill="#8879FF" transform="translate(767,74)"/>
<path d="M0 0 C-0.28875 0.515625 -0.5775 1.03125 -0.875 1.5625 C-2.28780027 4.62356725 -3.1248517 7.74944918 -4 11 C-4.33 11 -4.66 11 -5 11 C-5.36717663 3.5340751 -5.36717663 3.5340751 -3.625 1 C-2 0 -2 0 0 0 Z " fill="#F5D2B1" transform="translate(111,77)"/>
</svg>
