<svg version="1.1" id="Layer_1" xmlns="http://www.w3.org/2000/svg" xmlns:xlink="http://www.w3.org/1999/xlink" x="0px" y="0px"
	 width="100%" viewBox="0 0 1024 240" enable-background="new 0 0 1024 240" xml:space="preserve">
<path fill="#000000" opacity="1.000000" stroke="none" 
	d="
M284.032104,123.128494 
	C275.814423,127.256714 268.029755,131.443207 260.023712,135.151871 
	C252.515213,138.630066 247.459747,144.233963 243.894760,151.502609 
	C240.007172,159.429062 235.942383,167.268600 232.053497,175.194427 
	C229.820267,179.745895 226.484100,182.884171 221.282059,182.805176 
	C216.226669,182.728394 213.318649,179.330200 211.173920,175.020996 
	C206.795776,166.224380 202.267166,157.502457 197.778381,148.761154 
	C194.867203,143.092072 190.565857,138.901794 184.787918,136.088654 
	C176.251892,131.932663 167.874695,127.449493 159.324768,123.323395 
	C154.610870,121.048508 151.071793,117.874657 151.077728,112.452034 
	C151.083710,106.976509 154.850723,103.936729 159.480072,101.673317 
	C168.010361,97.502625 176.426346,93.098419 184.947678,88.908943 
	C190.708511,86.076660 194.935532,81.801178 197.835556,76.127121 
	C202.307709,67.377144 206.885651,58.679752 211.241470,49.872398 
	C213.416275,45.474998 216.595261,42.408943 221.529633,42.307240 
	C226.529816,42.204170 229.747299,45.313362 231.906296,49.679718 
	C235.818054,57.590828 239.893646,65.421257 243.773438,73.347733 
	C247.327560,80.608871 252.257217,86.330177 259.781860,89.823669 
	C267.935852,93.609344 275.843323,97.922180 283.928680,101.860672 
	C288.608948,104.140488 292.084351,107.304611 292.022736,112.817543 
	C291.966064,117.891525 288.774689,120.984390 284.032104,123.128494 
z"/>
<path fill="#000000" opacity="1.000000" stroke="none" 
	d="
M515.964355,190.095779 
	C529.063965,183.067535 540.129333,174.217972 549.513672,163.087997 
	C565.355286,144.299576 584.685913,129.056793 602.261292,112.024963 
	C605.367859,109.014488 608.366577,105.844063 612.206177,103.717346 
	C615.356140,101.972633 618.462646,102.377907 620.940918,104.832909 
	C623.279785,107.149780 623.199524,110.366554 621.236328,112.617912 
	C608.698730,126.995697 608.608948,145.500107 604.346802,162.613571 
	C603.302246,166.807632 602.613098,171.089050 601.637390,175.301788 
	C600.873657,178.599091 601.681030,180.242325 605.358337,179.343155 
	C618.475647,176.135712 628.584167,168.570969 635.568604,157.229218 
	C640.198059,149.711761 644.487915,141.996429 649.915405,135.005325 
	C652.489807,131.689270 655.490662,128.845627 659.253784,126.846909 
	C663.294434,124.700821 666.752380,126.124100 669.841187,128.671524 
	C672.475769,130.844360 671.023560,133.069016 669.383911,135.187241 
	C662.450012,144.145493 655.474426,153.073349 648.672363,162.131210 
	C644.465454,167.733322 640.681213,173.641327 638.345276,180.314423 
	C637.117310,183.822266 635.974609,187.710205 639.215149,190.575623 
	C642.292053,193.296356 646.001709,191.757004 649.108765,190.227341 
	C661.831726,183.963654 672.599487,175.058884 682.086426,164.636978 
	C691.617371,154.166626 698.194397,141.334732 708.429993,131.391312 
	C713.574097,126.394081 718.559143,121.220383 725.188110,118.132576 
	C737.706177,112.301689 746.145569,118.140472 745.125305,131.895996 
	C745.028137,133.206635 744.895569,134.514648 744.761353,136.027588 
	C750.218262,138.479935 754.627258,134.032623 759.520691,133.856659 
	C760.278198,135.793900 758.986816,136.577164 757.947876,137.231308 
	C755.415527,138.825699 752.920715,140.670090 750.140686,141.637512 
	C745.631714,143.206573 743.956482,146.218506 742.179382,150.595398 
	C735.374451,167.355774 723.437744,180.291061 709.187561,191.150787 
	C706.404419,193.271790 703.193115,194.712585 699.672607,195.365143 
	C687.340149,197.651093 678.861816,189.756027 680.170166,177.151443 
	C680.253418,176.349548 680.445007,175.558899 680.860474,173.217285 
	C677.342896,176.594437 674.847046,179.073456 672.262756,181.456528 
	C663.729492,189.325455 654.817383,196.387100 642.603455,197.704330 
	C633.961121,198.636368 628.297302,194.365891 627.736328,185.687134 
	C627.501099,182.047806 627.419983,178.376770 628.368042,174.534363 
	C626.611572,174.422699 625.606934,175.568161 624.524414,176.376343 
	C620.081970,179.693054 615.272644,182.324539 609.986389,183.971008 
	C603.317749,186.048019 596.819031,188.245148 590.855103,192.189041 
	C584.270813,196.543182 576.588440,196.604919 569.116638,194.903458 
	C561.057312,193.068176 557.578857,186.422668 554.584412,179.577911 
	C553.336487,176.725311 552.328125,173.767914 550.957214,170.197632 
	C544.910889,175.724472 539.432373,180.990112 533.674500,185.930115 
	C526.498047,192.087158 518.601196,196.841217 508.834747,197.781631 
	C501.048218,198.531387 495.911407,195.030930 494.315613,187.404266 
	C493.074738,181.474060 494.294464,175.813416 496.371887,170.290100 
	C500.860291,158.356613 507.121368,147.379684 514.738220,137.194168 
	C517.827332,133.063309 521.225769,129.154663 526.026184,126.785454 
	C530.400818,124.626404 533.829773,126.547409 536.855469,129.375107 
	C539.050232,131.426208 537.227417,133.216583 535.899353,134.987701 
	C527.508423,146.177979 518.230042,156.704620 510.772583,168.593704 
	C508.554413,172.130020 506.425018,175.715515 505.105347,179.694122 
	C503.880402,183.387192 502.715393,187.519272 505.766022,190.530457 
	C508.643158,193.370407 512.342712,191.519150 515.964355,190.095779 
M572.139282,148.638885 
	C568.215637,152.726852 564.182922,156.747955 562.139160,162.206238 
	C559.422729,169.461014 563.935730,178.366867 571.914856,181.610046 
	C580.259766,185.001907 587.715515,182.314362 590.960510,174.417343 
	C597.788025,157.801712 599.259888,140.113922 601.609863,121.610184 
	C590.437012,129.802200 581.681152,139.130325 572.139282,148.638885 
M692.695862,176.366562 
	C691.986206,180.184753 691.069641,184.336517 694.931580,186.839615 
	C698.563843,189.193802 701.934814,186.682343 705.126282,184.910843 
	C709.243896,182.625259 712.775696,179.567093 715.993774,176.180603 
	C721.736572,170.137192 727.068359,163.751190 731.546570,156.688339 
	C736.984131,148.112305 736.987000,147.949799 730.758728,139.968887 
	C726.786987,134.879517 725.252991,134.448059 720.362305,138.702591 
	C708.556885,148.972412 698.609680,160.714020 692.695862,176.366562 
z"/>
<path fill="#000000" opacity="1.000000" stroke="none" 
	d="
M421.257538,185.361847 
	C431.787140,158.860214 444.057007,133.454529 452.203705,106.432762 
	C453.740692,101.334747 455.565521,96.308723 456.823029,91.143700 
	C463.545044,63.534012 446.288422,48.013412 420.785187,50.793453 
	C389.436768,54.210667 368.370148,72.676788 354.006714,99.693275 
	C349.441406,108.280190 346.755646,117.527031 345.542755,127.231056 
	C343.322021,144.998230 354.171326,160.093582 371.669373,163.281357 
	C388.079285,166.270935 404.472870,152.697571 404.808624,136.023376 
	C404.852264,133.856644 403.135925,129.932205 406.599976,129.804123 
	C410.575134,129.657135 410.237183,133.885880 410.266571,136.729797 
	C410.359406,145.725021 405.849426,152.478317 399.477112,158.366623 
	C381.390228,175.079681 352.625916,171.599243 340.650940,151.028320 
	C334.914917,141.174774 334.562988,130.307907 336.365387,119.469696 
	C340.646149,93.728905 355.892609,75.386475 377.129272,61.619843 
	C395.313782,49.831787 415.211456,43.605862 437.184814,44.648346 
	C453.460297,45.420502 466.980682,53.623615 471.262482,66.453705 
	C474.440948,75.977730 472.778076,85.556473 470.534851,95.034523 
	C465.473450,116.419930 455.911743,136.079208 447.099030,156.021866 
	C442.318817,166.839279 437.496521,177.637466 433.442719,188.754883 
	C432.896729,190.252258 431.823914,191.742477 432.711517,193.605103 
	C435.027771,193.510361 435.989502,191.524887 437.269867,190.176636 
	C456.330811,170.105362 473.564026,148.450012 491.550598,127.446320 
	C509.974091,105.932495 528.053284,84.039276 549.747986,65.665543 
	C561.953308,55.328575 574.985474,45.941216 590.165466,40.198376 
	C597.108582,37.571682 604.315186,36.492195 611.742188,37.744297 
	C614.936707,38.282852 616.862976,40.076530 617.074768,43.384464 
	C617.278748,46.571426 615.912170,48.281235 612.571289,47.344421 
	C600.325195,43.910568 589.556641,48.186382 579.240784,53.965420 
	C560.005676,64.741173 543.917358,79.475121 528.582092,95.094231 
	C505.668030,118.432434 485.329498,143.978104 464.827576,169.389725 
	C457.612732,178.332321 450.278839,187.197784 442.609863,195.749222 
	C435.999817,203.119888 426.832703,206.710678 418.054504,210.722427 
	C415.774994,211.764191 414.501129,210.577011 414.571716,208.174942 
	C414.615356,206.690002 414.871094,205.192169 415.199554,203.738068 
	C416.598053,197.546951 418.771057,191.603683 421.257538,185.361847 
z"/>
<path fill="#000000" opacity="1.000000" stroke="none" 
	d="
M139.608704,200.629242 
	C136.917587,205.834656 134.370255,210.704437 131.905167,215.615479 
	C129.883179,219.643784 126.901123,222.186554 122.213486,222.355942 
	C117.507263,222.526031 114.286255,220.199005 112.133888,216.251114 
	C110.141891,212.597366 108.154221,208.926468 106.443649,205.137177 
	C102.938156,197.371735 97.515541,191.607483 89.746124,188.000717 
	C85.519836,186.038788 81.308006,183.996689 77.286476,181.653000 
	C69.288307,176.991837 69.295341,167.361130 77.289085,162.727112 
	C81.462830,160.307602 85.782967,158.108185 90.165787,156.088928 
	C97.828629,152.558472 102.899292,146.693756 106.419167,139.191803 
	C108.326286,135.127151 110.324554,131.068436 112.698517,127.267380 
	C117.540077,119.515305 127.287758,120.074120 131.599655,128.195496 
	C131.833725,128.636353 132.067520,129.082809 132.242615,129.548767 
	C138.007538,144.889313 148.189941,155.814041 163.819214,161.414825 
	C166.313095,162.308517 168.619003,163.739792 170.274841,165.968521 
	C174.364304,171.472885 172.238678,178.743073 165.467194,182.245880 
	C160.737793,184.692322 155.998917,187.122223 151.226898,189.483978 
	C146.290512,191.927078 142.529739,195.570602 139.608704,200.629242 
z"/>
<path fill="#000000" opacity="1.000000" stroke="none" 
	d="
M936.791077,156.809448 
	C938.815369,154.349075 940.588745,152.140991 942.419739,149.981766 
	C943.204041,149.056946 944.219482,148.282562 945.443909,149.094986 
	C946.630005,149.881958 946.358887,151.175644 945.971802,152.276123 
	C945.644836,153.205627 945.149536,154.115662 944.557861,154.906418 
	C935.768311,166.653015 926.849304,178.295197 915.134521,187.381424 
	C912.243225,189.623917 909.219299,191.711609 905.722473,192.980148 
	C895.247864,196.780029 885.594971,190.487305 884.816467,179.328445 
	C884.704041,177.717834 884.654053,176.102859 884.520691,173.378067 
	C879.715942,177.815216 875.573608,181.545105 871.544861,185.393906 
	C868.768188,188.046509 865.963745,190.628357 862.695374,192.684814 
	C856.469055,196.602356 850.105713,197.745209 843.374023,193.956223 
	C836.677185,190.186829 833.820679,184.493942 834.663269,176.887283 
	C834.735046,176.239243 834.672729,175.576340 834.672729,173.846146 
	C832.326721,175.886047 830.534546,177.408417 828.781677,178.974854 
	C821.892334,185.131424 814.227173,190.093216 805.739441,193.729050 
	C803.460571,194.705261 801.040955,195.493027 798.607483,195.945435 
	C783.417786,198.769379 774.684937,190.105850 776.313660,174.690140 
	C777.557312,162.919357 782.121826,152.584671 788.051514,142.642838 
	C788.796082,141.394455 790.125061,140.400589 789.742004,138.363831 
	C786.052429,137.206421 782.773804,135.092422 780.498230,131.181305 
	C768.695312,143.805130 760.611145,158.931976 747.038574,170.283478 
	C745.107239,165.355957 747.490112,163.405182 749.204529,161.322708 
	C758.412964,150.136871 767.784668,139.091537 775.029785,126.433998 
	C777.217041,122.612625 778.280640,118.434784 779.920898,114.445694 
	C781.695740,110.129585 783.448730,105.728722 787.754639,103.176529 
	C790.070251,101.803970 792.527222,101.492249 794.770264,103.272240 
	C796.828674,104.905708 797.084595,107.138008 796.484192,109.610123 
	C795.297485,114.496117 791.990112,118.059708 789.119019,121.933266 
	C787.829163,123.673546 785.351440,125.343269 786.971313,128.003632 
	C788.400757,130.351273 791.012207,129.974548 793.320984,129.932953 
	C796.422791,129.877090 799.102905,128.499466 801.719543,126.999512 
	C803.308044,126.088921 804.810974,124.983719 806.483154,124.274132 
	C809.721924,122.899788 812.358093,124.140671 814.404358,126.716713 
	C816.391846,129.218857 815.074280,131.228470 813.415833,133.379044 
	C805.292114,143.913055 796.010742,153.604111 789.765320,165.515366 
	C787.276489,170.262085 785.138245,175.133835 785.291504,180.670609 
	C785.453247,186.515366 788.447388,189.594864 794.307068,189.665421 
	C799.756165,189.731049 804.748047,188.040848 809.546936,185.503479 
	C824.153931,177.780029 835.233765,166.145538 845.566467,153.589355 
	C857.408447,139.199142 870.438232,126.202637 888.205261,119.105820 
	C892.274414,117.480453 896.507935,116.634819 900.886902,116.744873 
	C902.532532,116.786232 904.556458,116.647926 905.743286,117.508331 
	C911.096252,121.388794 915.775818,126.100677 921.973022,128.945602 
	C924.352234,130.037827 923.291260,132.995483 921.872803,135.133316 
	C915.979919,144.014694 910.055664,152.877365 904.313843,161.856186 
	C900.816589,167.324966 897.539917,172.935989 896.015808,179.380966 
	C895.354858,182.175964 895.399719,184.876205 897.627808,186.762375 
	C900.139893,188.889023 903.004272,187.942764 905.577942,186.541718 
	C913.153931,182.417572 919.140076,176.351700 924.996704,170.194809 
	C929.010986,165.974670 932.718689,161.462906 936.791077,156.809448 
M848.238281,171.803680 
	C846.267883,175.562012 845.137268,179.553574 845.376221,183.804565 
	C845.656616,188.790268 848.665894,190.940262 853.469971,189.699020 
	C857.914368,188.550720 861.736572,186.151718 865.238098,183.299255 
	C883.095520,168.752319 894.472168,148.865311 908.197876,130.918579 
	C910.263977,128.217026 908.279724,126.919319 905.824524,126.521545 
	C902.257812,125.943695 898.797668,126.836739 895.652466,128.411972 
	C875.993164,138.258163 860.295532,152.512436 848.238281,171.803680 
z"/>
<path fill="#000000" opacity="1.000000" stroke="none" 
	d="
M137.775024,84.767502 
	C135.642090,88.950012 133.708740,92.820854 131.743378,96.675392 
	C129.700073,100.682800 126.584297,103.153809 121.934677,103.259567 
	C117.437508,103.361862 113.858818,101.194901 112.410927,97.221092 
	C107.895851,84.829254 99.339615,77.192169 87.273659,72.091072 
	C79.012047,68.598320 79.118080,57.046631 87.452995,53.543442 
	C99.382500,48.529430 107.744644,40.932289 112.192459,28.723593 
	C113.726723,24.512213 117.511368,22.410028 122.169022,22.590319 
	C126.576599,22.760929 129.630310,25.083384 131.633926,28.912975 
	C131.865280,29.355164 132.117188,29.795313 132.278137,30.264353 
	C136.017715,41.162601 143.152878,48.587830 154.167740,52.397995 
	C158.844498,54.015739 162.155746,57.303398 162.247787,62.711765 
	C162.343582,68.340889 158.954498,71.428970 154.179016,73.570335 
	C150.689209,75.135178 147.362991,77.060989 143.904266,78.700142 
	C141.243362,79.961197 139.115479,81.677078 137.775024,84.767502 
z"/>
<path fill="#000000" opacity="1.000000" stroke="none" 
	d="
M551.967102,102.543274 
	C556.220154,104.633324 558.416809,107.484550 556.809753,111.941109 
	C555.537354,115.469475 549.895569,117.803062 545.783875,116.777794 
	C541.200317,115.634857 537.704895,111.466568 538.206177,107.548393 
	C538.648376,104.091942 540.927979,102.302452 544.205505,101.844559 
	C546.670532,101.500183 549.182922,101.427940 551.967102,102.543274 
z"/>
<path fill="#000000" opacity="1.000000" stroke="none" 
	d="
M685.005859,102.415817 
	C688.670715,104.423218 691.948181,106.394028 690.842468,110.958923 
	C689.964966,114.581322 684.580383,117.560890 680.386292,117.053413 
	C676.048584,116.528557 672.243713,113.109718 671.852478,109.170677 
	C671.458801,105.206947 673.550354,102.851486 677.244995,101.967445 
	C679.683899,101.383888 682.196655,101.432610 685.005859,102.415817 
z"/>
</svg>