<svg version="1.1" id="Layer_1" xmlns="http://www.w3.org/2000/svg" xmlns:xlink="http://www.w3.org/1999/xlink" x="0px" y="0px"
	 width="100%" viewBox="0 0 1000 200" enable-background="new 0 0 1000 200" xml:space="preserve">
<path fill="#FFFFFF" opacity="1.000000" stroke="none" 
	d="
M744.000000,201.000000 
	C496.000000,201.000000 248.500000,201.000000 1.000000,201.000000 
	C1.000000,134.333328 1.000000,67.666664 1.000000,1.000000 
	C334.333344,1.000000 667.666687,1.000000 1001.000000,1.000000 
	C1001.000000,67.666664 1001.000000,134.333328 1001.000000,201.000000 
	C915.500000,201.000000 830.000000,201.000000 744.000000,201.000000 
M111.401604,91.532867 
	C112.611015,91.991661 113.820435,92.450447 115.522339,93.370293 
	C117.007172,93.934921 118.492004,94.499542 120.366180,95.523911 
	C121.121284,95.768784 121.876389,96.013657 123.108772,96.744415 
	C124.554588,97.295746 126.000397,97.847076 127.927025,98.835693 
	C129.126541,99.285576 130.326065,99.735466 131.982361,100.722855 
	C133.981491,101.833076 135.980606,102.943298 138.297226,104.555222 
	C139.136063,105.073074 139.974899,105.590927 141.156891,106.670425 
	C142.776443,108.112282 144.395996,109.554131 146.379623,111.538506 
	C148.209625,113.493927 150.039627,115.449348 152.028625,118.049896 
	C153.685806,120.699371 155.342987,123.348846 157.114899,126.595802 
	C157.378357,126.897316 157.641815,127.198830 157.865341,128.024094 
	C157.994629,128.346390 158.123917,128.668686 158.371185,129.677658 
	C159.646347,132.451157 160.921524,135.224640 162.251190,138.696991 
	C162.996613,140.360626 163.575607,142.125931 164.518188,143.669144 
	C167.528595,148.597824 172.183228,148.707031 176.626328,143.632965 
	C176.827301,142.784821 177.028259,141.936661 177.723969,140.759384 
	C177.862259,140.189026 178.000565,139.618652 178.677795,138.693207 
	C179.365936,137.128372 180.054077,135.563538 181.148056,133.376022 
	C181.561249,131.968643 181.974426,130.561264 182.898453,128.806381 
	C183.522614,127.533470 184.146774,126.260559 185.186325,124.475060 
	C185.780136,123.313416 186.373932,122.151772 187.500290,120.604622 
	C188.065491,119.427925 188.630692,118.251228 189.753998,116.885696 
	C190.225662,116.282166 190.697342,115.678635 191.602463,114.878197 
	C191.862289,114.661858 192.003418,114.385002 192.547470,113.772232 
	C193.158234,112.809341 193.768997,111.846451 194.982437,110.510391 
	C197.283371,108.661354 199.584320,106.812309 202.509399,104.790825 
	C204.090485,103.730431 205.671555,102.670036 207.886871,101.373322 
	C208.272507,101.140205 208.658142,100.907097 209.480270,100.647034 
	C209.766922,100.524162 209.960236,100.315002 210.712448,99.962227 
	C211.805847,99.282036 212.899231,98.601845 214.708176,98.075127 
	C216.814987,97.087402 218.921783,96.099678 221.744583,95.038887 
	C223.833206,94.037270 225.921814,93.035645 228.727142,91.989853 
	C232.464615,90.507950 234.422562,87.764114 233.481552,83.804306 
	C232.603485,80.109383 230.308563,77.614777 225.390167,77.762848 
	C219.384811,74.794113 213.379471,71.825378 206.952560,68.309669 
	C205.341934,67.523926 203.731293,66.738182 201.882324,65.374557 
	C201.224442,64.919518 200.566559,64.464478 199.781296,63.359520 
	C198.259918,62.066010 196.738525,60.772499 195.031067,58.938133 
	C194.358017,58.288609 193.684967,57.639084 192.847839,56.451202 
	C192.314987,55.939892 191.782135,55.428581 191.002914,54.316933 
	C190.030151,53.209232 189.057404,52.101532 188.086685,50.298336 
	C187.118057,48.745712 186.149429,47.193092 185.160034,45.288445 
	C185.160034,45.288445 184.953400,45.002686 184.905899,44.342724 
	C184.498398,43.564716 184.090912,42.786709 183.617554,41.430672 
	C183.154312,40.591732 182.691086,39.752792 182.133759,38.215141 
	C181.458618,36.750343 180.783478,35.285545 180.073242,33.142708 
	C179.489151,31.937294 178.905060,30.731878 178.243515,28.992029 
	C178.103287,28.657528 177.963058,28.323027 177.778992,27.287291 
	C176.585327,23.691782 174.482269,21.021666 170.367798,21.107658 
	C166.492447,21.188654 164.587692,23.810955 163.408600,27.201174 
	C162.378693,30.162397 161.193787,33.069706 159.686905,36.584526 
	C158.504211,39.390049 157.321518,42.195572 155.732452,45.563236 
	C153.140762,49.367683 150.549072,53.172131 147.351364,57.198982 
	C145.882767,58.753017 144.414185,60.307049 142.348907,62.168797 
	C140.096695,64.033356 137.844467,65.897903 134.943283,67.874031 
	C133.621597,68.648460 132.299911,69.422890 130.351532,70.305786 
	C128.853470,71.069710 127.355415,71.833633 125.180229,72.760139 
	C123.771759,73.457626 122.363289,74.155106 120.263954,74.901901 
	C119.048576,75.520332 117.833199,76.138771 115.969078,76.844193 
	C114.981262,77.309486 113.993446,77.774788 112.329674,78.274994 
	C106.202377,82.220329 105.702263,86.987114 111.401604,91.532867 
M230.484604,133.100372 
	C230.354691,133.404343 230.224777,133.708298 229.571381,134.419815 
	C227.443268,136.964386 225.315155,139.508957 222.534683,142.303802 
	C219.355011,144.199890 216.175354,146.095993 212.282318,148.058426 
	C207.172424,150.788223 206.890335,152.515610 211.595139,156.202835 
	C213.918472,157.178192 216.241806,158.153549 219.004440,159.670792 
	C220.988586,161.143539 222.972717,162.616287 225.165115,164.658463 
	C226.066345,165.454239 226.967560,166.250000 228.057068,167.672302 
	C228.978622,168.884399 229.900162,170.096512 230.900787,171.923935 
	C231.473938,173.016998 232.047104,174.110077 232.810211,175.918320 
	C234.326782,177.601654 235.843353,179.284973 237.359940,180.968292 
	C238.908340,179.320175 240.602722,177.781631 241.952179,175.984161 
	C242.806198,174.846634 243.145935,173.323029 244.136658,171.426575 
	C245.809479,168.969940 247.482300,166.513306 249.813141,163.875397 
	C254.266327,161.346512 258.796783,158.940491 263.127716,156.217209 
	C264.507355,155.349686 266.192413,153.651855 266.212860,152.310684 
	C266.233093,150.983170 264.523865,149.373520 263.209198,148.359818 
	C262.096161,147.501602 260.462921,147.318024 258.664673,146.352127 
	C257.531738,145.844086 256.398834,145.336060 254.920486,144.327408 
	C254.065201,143.826752 253.209930,143.326080 251.991898,142.274277 
	C250.740860,141.475098 249.489838,140.675903 248.148148,139.214203 
	C247.695251,138.494370 247.242371,137.774521 246.593216,136.438629 
	C245.463959,134.823792 244.334702,133.208939 243.144424,131.007126 
	C242.778732,130.331131 242.413055,129.655136 241.999649,128.228516 
	C240.531158,126.461464 239.062683,124.694405 237.594208,122.927330 
	C235.981659,124.550720 234.132126,126.007118 232.832718,127.851158 
	C231.820801,129.287201 231.493652,131.205734 230.921082,132.966263 
	C230.921082,132.966263 230.948059,132.889297 230.484604,133.100372 
M379.040466,150.625534 
	C391.684143,114.217056 404.327820,77.808571 417.165588,40.841106 
	C413.564117,40.841106 410.527344,41.218399 407.622681,40.759499 
	C402.226166,39.906906 400.349487,42.366329 398.725342,47.265118 
	C387.632019,80.725830 376.166962,114.063408 364.779663,147.426300 
	C364.197601,149.131699 363.228088,150.704849 361.816620,153.628922 
	C360.606750,150.732956 359.913879,149.297668 359.397156,147.801544 
	C355.868652,137.585205 352.387115,127.352661 348.871704,117.131790 
	C340.596863,93.073265 332.355316,69.002975 323.933685,44.995903 
	C323.361053,43.363571 321.528961,41.218033 320.065704,41.033787 
	C315.826019,40.499950 311.475677,40.844791 306.635010,40.844791 
	C307.183533,42.940331 307.488068,44.527103 308.010651,46.038479 
	C320.781403,82.970680 333.544403,119.905655 346.401886,156.807709 
	C348.125427,161.754425 349.072296,168.449524 352.690613,170.849136 
	C356.424683,173.325516 362.997375,171.799789 368.294098,171.472748 
	C369.891754,171.374115 372.149323,169.759201 372.773529,168.277939 
	C375.093567,162.772614 376.859222,157.033661 379.040466,150.625534 
M828.154846,76.600281 
	C823.327026,80.243629 818.499146,83.886978 813.473694,87.679436 
	C816.666504,92.041962 819.081116,95.341240 821.347351,98.437813 
	C822.274963,98.238884 822.699341,98.277649 822.899414,98.084312 
	C824.448425,96.587006 825.945679,95.036377 827.474731,93.518082 
	C837.323425,83.738876 849.216736,81.911354 862.116089,85.096123 
	C867.912476,86.527229 870.797546,90.680901 871.138733,96.295670 
	C871.524231,102.637871 869.485168,106.435852 863.377258,108.741714 
	C858.431702,110.608765 853.136475,111.528175 848.052856,113.056023 
	C839.824219,115.529121 831.218445,117.261208 823.525757,120.899925 
	C806.000610,129.189590 807.690369,158.658340 821.884583,168.092224 
	C836.334961,177.696411 859.737305,174.007187 869.824158,160.015335 
	C870.476501,159.110489 870.584778,157.813400 870.946106,156.698761 
	C877.658081,169.751022 880.481445,172.002380 889.892517,172.114334 
	C900.033142,172.234970 900.744812,171.401978 898.906860,161.488098 
	C898.822266,161.031708 898.515991,160.616425 898.335632,160.230515 
	C885.978088,159.453735 885.981506,159.453735 885.975586,146.792343 
	C885.967957,130.637115 886.119324,114.479584 885.893372,98.327370 
	C885.694214,84.091797 877.255798,74.517677 863.343750,72.017639 
	C851.387146,69.868980 839.821716,70.812248 828.154846,76.600281 
M626.851624,97.421532 
	C622.655273,108.043510 622.149658,119.066299 622.942871,130.316269 
	C624.780090,156.372513 640.900818,172.204819 666.936340,173.263397 
	C690.873962,174.236679 708.512451,160.993073 712.534180,137.547821 
	C714.136719,128.205551 713.969299,118.261742 712.826416,108.807106 
	C710.268616,87.646873 696.644348,74.167778 675.390198,71.468788 
	C655.073364,68.888817 635.651794,75.998856 626.851624,97.421532 
M499.634064,170.965439 
	C511.659454,174.136749 523.658691,174.574493 535.460449,170.109039 
	C547.364746,165.604797 553.868408,155.827332 553.480347,143.509918 
	C553.068909,130.450745 546.836365,121.849579 534.373047,117.861435 
	C528.206848,115.888313 521.773621,114.759727 515.575012,112.874664 
	C510.838531,111.434250 505.842224,110.096931 501.736969,107.491722 
	C493.687500,102.383446 494.713623,89.510117 503.489471,85.799812 
	C514.242981,81.253410 525.049500,81.863869 534.871216,88.643242 
	C541.849731,93.460121 541.693298,93.695305 547.881775,87.517448 
	C548.562439,86.837898 549.174622,86.089767 550.447266,84.674156 
	C546.855835,81.667618 543.863098,78.013618 540.005615,76.138939 
	C525.987427,69.326210 511.414276,68.887466 497.000732,74.849403 
	C487.774323,78.665787 482.516510,85.932556 482.135345,96.089668 
	C481.732605,106.820724 485.957825,115.300598 495.718323,120.299324 
	C499.675354,122.325890 504.016205,123.693314 508.297729,124.975800 
	C515.612976,127.167023 523.145264,128.690628 530.347168,131.185379 
	C536.111023,133.181992 538.821899,138.111359 538.818481,144.114029 
	C538.814819,150.482971 535.866089,155.257233 529.903748,157.946747 
	C518.086487,163.277313 501.949524,160.104095 492.906494,150.661636 
	C487.487640,145.003372 487.487701,145.003494 482.082642,150.581238 
	C481.850739,150.820557 481.644775,151.098328 481.376740,151.287308 
	C478.132385,153.574921 478.574371,155.999405 480.782593,158.843887 
	C485.479126,164.893661 491.844543,168.291107 499.634064,170.965439 
M742.059937,121.500000 
	C742.059937,138.066010 742.059937,154.632019 742.059937,171.281921 
	C747.319031,171.281921 751.884705,171.281921 756.840393,171.281921 
	C756.840393,169.128250 756.839355,167.324936 756.840576,165.521622 
	C756.850891,150.545212 756.679993,135.565338 756.966248,120.594215 
	C757.073364,114.990852 757.712219,109.277985 759.036499,103.841042 
	C762.382629,90.103485 772.435242,83.723488 786.274109,86.052124 
	C788.218384,86.379265 790.064392,87.501503 791.995239,87.621033 
	C793.238220,87.697990 795.317993,86.926781 795.697632,85.995514 
	C797.047363,82.684761 797.828796,79.142349 799.004883,75.065506 
	C781.282471,68.913788 766.804077,71.082916 757.021973,89.058517 
	C756.712524,88.704620 756.403076,88.350731 756.093628,87.996834 
	C756.093628,83.121216 756.093628,78.245605 756.093628,73.285217 
	C751.120667,73.285217 746.755066,73.285217 742.059998,73.285217 
	C742.059998,89.265114 742.059998,104.882561 742.059937,121.500000 
M579.987061,127.500000 
	C579.987061,142.077591 579.987061,156.655167 579.987061,171.261185 
	C585.244690,171.261185 589.805908,171.261185 594.373840,171.261185 
	C594.373840,138.332489 594.373840,105.785027 594.373840,73.267639 
	C589.434326,73.267639 584.864258,73.267639 579.987061,73.267639 
	C579.987061,91.244438 579.987061,108.872223 579.987061,127.500000 
M454.570648,105.500107 
	C454.570648,94.742302 454.570648,83.984489 454.570648,73.337006 
	C449.247742,73.337006 444.685577,73.337006 440.181213,73.337006 
	C440.181213,106.180191 440.181213,138.617050 440.181213,171.237503 
	C444.976868,171.237503 449.523773,171.237503 454.570099,171.237503 
	C454.570099,149.409348 454.570099,127.954735 454.570648,105.500107 
M579.681946,50.766262 
	C581.411072,51.697380 583.042358,53.014137 584.888855,53.482605 
	C589.286438,54.598305 593.179443,53.284389 595.857666,49.592262 
	C598.521790,45.919498 598.705322,41.856819 596.232971,37.964874 
	C593.757446,34.067955 589.976868,32.599228 585.527832,33.321987 
	C577.571411,34.614525 574.697144,42.385445 579.681946,50.766262 
M457.208923,40.472980 
	C454.710144,34.926891 450.689636,32.433552 445.575287,33.258369 
	C440.890991,34.013832 437.460144,37.323441 436.965851,41.712341 
	C436.511383,45.747700 437.261993,49.430637 440.910156,51.832279 
	C444.691742,54.321762 448.714142,54.691269 452.690643,52.320316 
	C456.908905,49.805222 458.284607,45.953766 457.208923,40.472980 
z"/>
<path fill="#634EFF" opacity="1.000000" stroke="none" 
	d="
M378.936737,151.003998 
	C376.859222,157.033661 375.093567,162.772614 372.773529,168.277939 
	C372.149323,169.759201 369.891754,171.374115 368.294098,171.472748 
	C362.997375,171.799789 356.424683,173.325516 352.690613,170.849136 
	C349.072296,168.449524 348.125427,161.754425 346.401886,156.807709 
	C333.544403,119.905655 320.781403,82.970680 308.010651,46.038479 
	C307.488068,44.527103 307.183533,42.940331 306.635010,40.844791 
	C311.475677,40.844791 315.826019,40.499950 320.065704,41.033787 
	C321.528961,41.218033 323.361053,43.363571 323.933685,44.995903 
	C332.355316,69.002975 340.596863,93.073265 348.871704,117.131790 
	C352.387115,127.352661 355.868652,137.585205 359.397156,147.801544 
	C359.913879,149.297668 360.606750,150.732956 361.816620,153.628922 
	C363.228088,150.704849 364.197601,149.131699 364.779663,147.426300 
	C376.166962,114.063408 387.632019,80.725830 398.725342,47.265118 
	C400.349487,42.366329 402.226166,39.906906 407.622681,40.759499 
	C410.527344,41.218399 413.564117,40.841106 417.165588,40.841106 
	C404.327820,77.808571 391.684143,114.217056 378.936737,151.003998 
z"/>
<path fill="#634EFF" opacity="1.000000" stroke="none" 
	d="
M828.471313,76.403809 
	C839.821716,70.812248 851.387146,69.868980 863.343750,72.017639 
	C877.255798,74.517677 885.694214,84.091797 885.893372,98.327370 
	C886.119324,114.479584 885.967957,130.637115 885.975586,146.792343 
	C885.981506,159.453735 885.978088,159.453735 898.335632,160.230515 
	C898.515991,160.616425 898.822266,161.031708 898.906860,161.488098 
	C900.744812,171.401978 900.033142,172.234970 889.892517,172.114334 
	C880.481445,172.002380 877.658081,169.751022 870.946106,156.698761 
	C870.584778,157.813400 870.476501,159.110489 869.824158,160.015335 
	C859.737305,174.007187 836.334961,177.696411 821.884583,168.092224 
	C807.690369,158.658340 806.000610,129.189590 823.525757,120.899925 
	C831.218445,117.261208 839.824219,115.529121 848.052856,113.056023 
	C853.136475,111.528175 858.431702,110.608765 863.377258,108.741714 
	C869.485168,106.435852 871.524231,102.637871 871.138733,96.295670 
	C870.797546,90.680901 867.912476,86.527229 862.116089,85.096123 
	C849.216736,81.911354 837.323425,83.738876 827.474731,93.518082 
	C825.945679,95.036377 824.448425,96.587006 822.899414,98.084312 
	C822.699341,98.277649 822.274963,98.238884 821.347351,98.437813 
	C819.081116,95.341240 816.666504,92.041962 813.473694,87.679436 
	C818.499146,83.886978 823.327026,80.243629 828.471313,76.403809 
M871.879578,131.281982 
	C871.879578,127.215927 871.879578,123.149872 871.879578,119.622612 
	C861.469666,121.987854 851.697632,124.148842 841.961853,126.462425 
	C839.559631,127.033272 837.182678,127.907005 834.954102,128.975296 
	C828.016113,132.301102 825.371582,137.534622 826.003418,146.214325 
	C826.520508,153.318222 830.314026,159.101608 837.194580,160.370041 
	C842.693909,161.383865 848.960388,161.638382 854.196533,160.010773 
	C867.438843,155.894485 871.035278,144.723831 871.879578,131.281982 
z"/>
<path fill="#634EFF" opacity="1.000000" stroke="none" 
	d="
M626.976196,97.057175 
	C635.651794,75.998856 655.073364,68.888817 675.390198,71.468788 
	C696.644348,74.167778 710.268616,87.646873 712.826416,108.807106 
	C713.969299,118.261742 714.136719,128.205551 712.534180,137.547821 
	C708.512451,160.993073 690.873962,174.236679 666.936340,173.263397 
	C640.900818,172.204819 624.780090,156.372513 622.942871,130.316269 
	C622.149658,119.066299 622.655273,108.043510 626.976196,97.057175 
M689.724365,152.210220 
	C692.152405,147.549805 695.417175,143.128830 696.833740,138.178925 
	C699.756531,127.965393 699.490784,117.449440 697.122681,107.064980 
	C693.560547,91.445000 683.601685,83.760056 667.395813,84.015923 
	C652.217346,84.255569 641.425476,93.032646 639.298157,108.430954 
	C638.107849,117.046791 638.259216,126.020500 639.116638,134.703522 
	C640.214966,145.824783 645.614624,154.887360 656.922119,158.380402 
	C668.415771,161.930939 679.634155,161.358704 689.724365,152.210220 
z"/>
<path fill="#634EFF" opacity="1.000000" stroke="none" 
	d="
M499.249207,170.858124 
	C491.844543,168.291107 485.479126,164.893661 480.782593,158.843887 
	C478.574371,155.999405 478.132385,153.574921 481.376740,151.287308 
	C481.644775,151.098328 481.850739,150.820557 482.082642,150.581238 
	C487.487701,145.003494 487.487640,145.003372 492.906494,150.661636 
	C501.949524,160.104095 518.086487,163.277313 529.903748,157.946747 
	C535.866089,155.257233 538.814819,150.482971 538.818481,144.114029 
	C538.821899,138.111359 536.111023,133.181992 530.347168,131.185379 
	C523.145264,128.690628 515.612976,127.167023 508.297729,124.975800 
	C504.016205,123.693314 499.675354,122.325890 495.718323,120.299324 
	C485.957825,115.300598 481.732605,106.820724 482.135345,96.089668 
	C482.516510,85.932556 487.774323,78.665787 497.000732,74.849403 
	C511.414276,68.887466 525.987427,69.326210 540.005615,76.138939 
	C543.863098,78.013618 546.855835,81.667618 550.447266,84.674156 
	C549.174622,86.089767 548.562439,86.837898 547.881775,87.517448 
	C541.693298,93.695305 541.849731,93.460121 534.871216,88.643242 
	C525.049500,81.863869 514.242981,81.253410 503.489471,85.799812 
	C494.713623,89.510117 493.687500,102.383446 501.736969,107.491722 
	C505.842224,110.096931 510.838531,111.434250 515.575012,112.874664 
	C521.773621,114.759727 528.206848,115.888313 534.373047,117.861435 
	C546.836365,121.849579 553.068909,130.450745 553.480347,143.509918 
	C553.868408,155.827332 547.364746,165.604797 535.460449,170.109039 
	C523.658691,174.574493 511.659454,174.136749 499.249207,170.858124 
z"/>
<path fill="#6450FF" opacity="1.000000" stroke="none" 
	d="
M742.059937,121.000000 
	C742.059998,104.882561 742.059998,89.265114 742.059998,73.285217 
	C746.755066,73.285217 751.120667,73.285217 756.093628,73.285217 
	C756.093628,78.245605 756.093628,83.121216 756.093628,87.996834 
	C756.403076,88.350731 756.712524,88.704620 757.021973,89.058517 
	C766.804077,71.082916 781.282471,68.913788 799.004883,75.065506 
	C797.828796,79.142349 797.047363,82.684761 795.697632,85.995514 
	C795.317993,86.926781 793.238220,87.697990 791.995239,87.621033 
	C790.064392,87.501503 788.218384,86.379265 786.274109,86.052124 
	C772.435242,83.723488 762.382629,90.103485 759.036499,103.841042 
	C757.712219,109.277985 757.073364,114.990852 756.966248,120.594215 
	C756.679993,135.565338 756.850891,150.545212 756.840576,165.521622 
	C756.839355,167.324936 756.840393,169.128250 756.840393,171.281921 
	C751.884705,171.281921 747.319031,171.281921 742.059937,171.281921 
	C742.059937,154.632019 742.059937,138.066010 742.059937,121.000000 
z"/>
<path fill="#6551FF" opacity="1.000000" stroke="none" 
	d="
M579.987061,127.000000 
	C579.987061,108.872223 579.987061,91.244438 579.987061,73.267639 
	C584.864258,73.267639 589.434326,73.267639 594.373840,73.267639 
	C594.373840,105.785027 594.373840,138.332489 594.373840,171.261185 
	C589.805908,171.261185 585.244690,171.261185 579.987061,171.261185 
	C579.987061,156.655167 579.987061,142.077591 579.987061,127.000000 
z"/>
<path fill="#614CFF" opacity="1.000000" stroke="none" 
	d="
M454.570374,106.000114 
	C454.570099,127.954735 454.570099,149.409348 454.570099,171.237503 
	C449.523773,171.237503 444.976868,171.237503 440.181213,171.237503 
	C440.181213,138.617050 440.181213,106.180191 440.181213,73.337006 
	C444.685577,73.337006 449.247742,73.337006 454.570648,73.337006 
	C454.570648,83.984489 454.570648,94.742302 454.570374,106.000114 
z"/>
<path fill="#3F92DA" opacity="1.000000" stroke="none" 
	d="
M201.885254,104.963264 
	C199.584320,106.812309 197.283371,108.661354 194.539093,110.311569 
	C190.017365,105.289238 185.585342,101.203102 185.398895,93.678589 
	C185.232040,86.944084 186.063095,81.714027 190.674301,76.591789 
	C195.317200,71.434380 201.435715,70.599792 207.374115,68.856644 
	C213.379471,71.825378 219.384811,74.794113 225.694061,78.343643 
	C226.369522,80.684883 226.830444,82.432205 227.091446,84.208893 
	C227.473022,86.806213 227.711166,89.424614 228.010437,92.034027 
	C225.921814,93.035645 223.833206,94.037270 221.377777,94.618904 
	C220.972473,82.132225 218.518463,78.669411 208.640305,76.742836 
	C200.547104,75.164391 193.592728,79.654419 191.610794,87.737724 
	C189.624466,95.838974 193.673233,102.626907 201.885254,104.963264 
z"/>
<path fill="#7C7BCE" opacity="1.000000" stroke="none" 
	d="
M188.084641,50.993828 
	C189.057404,52.101532 190.030151,53.209232 190.715225,54.641495 
	C179.602234,57.053967 173.419754,65.250511 169.515045,74.004074 
	C163.542480,87.393349 163.717117,101.242348 172.909348,113.941078 
	C176.180817,118.460487 178.614441,123.657478 184.770935,124.987656 
	C184.146774,126.260559 183.522614,127.533470 182.239029,128.934601 
	C170.906326,124.895660 165.722565,116.067734 161.998871,105.591385 
	C161.665588,99.844917 161.277817,94.509933 161.021500,89.168633 
	C160.891098,86.451447 160.997192,83.722916 160.997696,80.624634 
	C160.999924,79.499992 161.000839,78.750229 161.315063,77.836601 
	C165.262421,69.541985 169.415817,61.781933 176.455612,55.952587 
	C177.244965,55.298950 177.501419,54.001774 178.253754,53.002312 
	C178.502502,53.001591 179.000000,52.998627 179.382538,52.956093 
	C182.538254,52.273651 185.311447,51.633739 188.084641,50.993828 
z"/>
<path fill="#9973CA" opacity="1.000000" stroke="none" 
	d="
M180.742218,133.998703 
	C180.054077,135.563538 179.365936,137.128372 178.052994,138.827850 
	C169.468796,132.249878 161.161377,125.819878 157.082031,115.734955 
	C154.063644,108.272888 150.103104,100.983604 150.978928,92.554962 
	C151.596512,86.611725 152.306000,80.626198 153.672562,74.823982 
	C156.119614,64.434334 162.118774,55.854443 170.171494,49.256878 
	C173.952698,46.158955 177.537842,41.269814 183.683426,42.008705 
	C184.090912,42.786709 184.498398,43.564716 184.576050,44.710133 
	C166.361267,54.516800 156.449768,69.104713 154.936981,89.469704 
	C153.969894,102.488342 158.710297,113.694893 166.173737,123.528786 
	C169.629242,128.081787 175.801590,130.572845 180.742218,133.998703 
z"/>
<path fill="#A271C1" opacity="1.000000" stroke="none" 
	d="
M183.650482,41.719688 
	C177.537842,41.269814 173.952698,46.158955 170.171494,49.256878 
	C162.118774,55.854443 156.119614,64.434334 153.672562,74.823982 
	C152.306000,80.626198 151.596512,86.611725 150.978928,92.554962 
	C150.103104,100.983604 154.063644,108.272888 157.082031,115.734955 
	C161.161377,125.819878 169.468796,132.249878 177.783524,139.005402 
	C178.000565,139.618652 177.862259,140.189026 177.108307,140.871399 
	C171.723831,137.552490 166.987656,134.074524 162.162308,130.725037 
	C161.012207,129.926697 159.564194,129.557541 158.253204,128.990982 
	C158.123917,128.668686 157.994629,128.346390 157.837631,127.453835 
	C157.539993,126.588493 157.270081,126.293411 157.000153,125.998329 
	C155.342987,123.348846 153.685806,120.699371 151.986298,117.279114 
	C151.601562,114.404121 151.713715,112.087234 150.844513,110.229507 
	C144.159454,95.941734 147.706146,82.212746 152.745300,68.497215 
	C154.262360,64.368103 155.587524,60.168488 157.000305,56.000584 
	C157.000000,56.000000 157.001221,56.000763 157.371994,55.996220 
	C158.814590,55.352253 160.046539,54.882484 160.932617,54.046242 
	C167.331528,48.007191 172.953491,40.902061 182.227859,38.913849 
	C182.691086,39.752792 183.154312,40.591732 183.650482,41.719688 
z"/>
<path fill="#B46FAA" opacity="1.000000" stroke="none" 
	d="
M147.957367,56.976578 
	C150.549072,53.172131 153.140762,49.367683 156.274200,45.239429 
	C160.105865,42.812313 163.498703,40.851597 166.659729,38.569748 
	C170.645737,35.692360 174.442551,32.552872 178.320984,29.526463 
	C178.905060,30.731878 179.489151,31.937294 179.925812,33.807487 
	C173.318726,39.587978 166.736832,44.560844 160.480942,49.914658 
	C158.809235,51.345318 158.133957,53.940311 157.001221,56.000763 
	C157.001221,56.000763 157.000000,56.000000 156.643799,56.039879 
	C154.052490,59.926079 151.739807,63.729740 149.596573,67.626587 
	C142.647980,80.260498 144.001190,93.504105 146.716919,106.875557 
	C146.975571,108.149017 146.272278,109.617851 146.015549,110.995979 
	C144.395996,109.554131 142.776443,108.112282 141.298584,106.139542 
	C141.292114,99.701057 141.080841,93.794205 141.010971,87.885674 
	C140.912628,79.567619 141.791656,71.507271 146.294144,64.123840 
	C147.503433,62.140774 147.437759,59.380222 147.957367,56.976578 
z"/>
<path fill="#3197DE" opacity="1.000000" stroke="none" 
	d="
M202.197327,104.877045 
	C193.673233,102.626907 189.624466,95.838974 191.610794,87.737724 
	C193.592728,79.654419 200.547104,75.164391 208.640305,76.742836 
	C218.518463,78.669411 220.972473,82.132225 221.019791,94.655441 
	C218.921783,96.099678 216.814987,97.087402 214.352753,97.589142 
	C214.082077,95.956635 214.059723,94.790047 214.270142,93.667084 
	C215.166748,88.881920 213.020630,84.338127 209.279221,83.247093 
	C204.509552,81.856216 198.975708,85.055893 197.494781,90.060852 
	C196.503433,93.411186 199.360748,97.636002 203.621460,99.377426 
	C204.919174,99.907822 206.046997,100.853928 207.252625,101.609634 
	C205.671555,102.670036 204.090485,103.730431 202.197327,104.877045 
z"/>
<path fill="#8F77CD" opacity="1.000000" stroke="none" 
	d="
M180.945145,133.687363 
	C175.801590,130.572845 169.629242,128.081787 166.173737,123.528786 
	C158.710297,113.694893 153.969894,102.488342 154.936981,89.469704 
	C156.449768,69.104713 166.361267,54.516800 184.599808,45.040115 
	C184.953400,45.002686 185.160034,45.288445 185.016571,45.803078 
	C182.915390,48.544685 180.957703,50.771656 179.000000,52.998627 
	C179.000000,52.998627 178.502502,53.001591 177.908142,53.034874 
	C170.807190,57.453369 165.840698,63.133293 163.039047,70.513680 
	C162.125473,72.920265 161.667892,75.499954 161.001740,78.000465 
	C161.000839,78.750229 160.999924,79.499992 160.605316,80.678734 
	C159.482452,82.090790 158.115646,83.083130 158.129776,84.055412 
	C158.208893,89.500923 158.381531,94.971130 159.046234,100.368370 
	C159.288681,102.337013 160.972534,104.128136 161.998779,106.000252 
	C165.722565,116.067734 170.906326,124.895660 181.983612,129.108337 
	C181.974426,130.561264 181.561249,131.968643 180.945145,133.687363 
z"/>
<path fill="#6E81D3" opacity="1.000000" stroke="none" 
	d="
M184.978638,124.731354 
	C178.614441,123.657478 176.180817,118.460487 172.909348,113.941078 
	C163.717117,101.242348 163.542480,87.393349 169.515045,74.004074 
	C173.419754,65.250511 179.602234,57.053967 190.838409,54.941666 
	C191.782135,55.428581 192.314987,55.939892 192.773285,57.027443 
	C188.715637,60.443523 184.431274,62.946918 180.809219,66.190025 
	C172.023651,74.056427 168.839142,84.156006 170.475830,95.729034 
	C170.788788,97.941978 172.416458,99.961662 172.771637,102.177261 
	C174.189224,111.020103 178.902023,117.234627 186.967728,120.990128 
	C186.373932,122.151772 185.780136,123.313416 184.978638,124.731354 
z"/>
<path fill="#6450FF" opacity="1.000000" stroke="none" 
	d="
M579.419922,50.484879 
	C574.697144,42.385445 577.571411,34.614525 585.527832,33.321987 
	C589.976868,32.599228 593.757446,34.067955 596.232971,37.964874 
	C598.705322,41.856819 598.521790,45.919498 595.857666,49.592262 
	C593.179443,53.284389 589.286438,54.598305 584.888855,53.482605 
	C583.042358,53.014137 581.411072,51.697380 579.419922,50.484879 
z"/>
<path fill="#6450FF" opacity="1.000000" stroke="none" 
	d="
M457.323425,40.842712 
	C458.284607,45.953766 456.908905,49.805222 452.690643,52.320316 
	C448.714142,54.691269 444.691742,54.321762 440.910156,51.832279 
	C437.261993,49.430637 436.511383,45.747700 436.965851,41.712341 
	C437.460144,37.323441 440.890991,34.013832 445.575287,33.258369 
	C450.689636,32.433552 454.710144,34.926891 457.323425,40.842712 
z"/>
<path fill="#6185D5" opacity="1.000000" stroke="none" 
	d="
M187.234009,120.797379 
	C178.902023,117.234627 174.189224,111.020103 172.771637,102.177261 
	C172.416458,99.961662 170.788788,97.941978 170.475830,95.729034 
	C168.839142,84.156006 172.023651,74.056427 180.809219,66.190025 
	C184.431274,62.946918 188.715637,60.443523 192.855347,57.296623 
	C193.684967,57.639084 194.358017,58.288609 194.977051,59.564873 
	C193.227722,61.488182 191.476883,62.719006 189.848282,64.094566 
	C186.090195,67.268768 181.954590,69.380569 179.652374,74.790833 
	C176.139008,83.047371 173.521378,90.644653 175.986176,99.696411 
	C178.100922,107.462578 181.885544,113.486732 189.195877,117.074524 
	C188.630692,118.251228 188.065491,119.427925 187.234009,120.797379 
z"/>
<path fill="#D96B75" opacity="1.000000" stroke="none" 
	d="
M230.821716,171.308609 
	C229.900162,170.096512 228.978622,168.884399 228.337875,167.312531 
	C235.901749,163.298172 243.423553,160.036896 250.366669,155.822296 
	C253.812881,153.730347 256.195892,149.886948 259.059906,146.835907 
	C260.462921,147.318024 262.096161,147.501602 263.209198,148.359818 
	C264.523865,149.373520 266.233093,150.983170 266.212860,152.310684 
	C266.192413,153.651855 264.507355,155.349686 263.127716,156.217209 
	C258.796783,158.940491 254.266327,161.346512 249.086472,163.953766 
	C246.031113,164.717041 243.607025,165.181183 241.395401,166.136963 
	C237.797760,167.691727 234.339050,169.568008 230.821716,171.308609 
z"/>
<path fill="#259CE0" opacity="1.000000" stroke="none" 
	d="
M207.569748,101.491478 
	C206.046997,100.853928 204.919174,99.907822 203.621460,99.377426 
	C199.360748,97.636002 196.503433,93.411186 197.494781,90.060852 
	C198.975708,85.055893 204.509552,81.856216 209.279221,83.247093 
	C213.020630,84.338127 215.166748,88.881920 214.270142,93.667084 
	C214.059723,94.790047 214.082077,95.956635 213.994995,97.512398 
	C212.899231,98.601845 211.805847,99.282036 210.182388,100.039932 
	C209.384476,100.231987 209.181625,100.417427 209.043777,100.673981 
	C208.658142,100.907097 208.272507,101.140205 207.569748,101.491478 
z"/>
<path fill="#568AD5" opacity="1.000000" stroke="none" 
	d="
M189.474945,116.980110 
	C181.885544,113.486732 178.100922,107.462578 175.986176,99.696411 
	C173.521378,90.644653 176.139008,83.047371 179.652374,74.790833 
	C181.954590,69.380569 186.090195,67.268768 189.848282,64.094566 
	C191.476883,62.719006 193.227722,61.488182 195.070099,59.835300 
	C196.738525,60.772499 198.259918,62.066010 199.487396,63.724606 
	C191.317764,66.061859 185.367828,71.232613 181.480408,77.708519 
	C173.450211,91.085716 178.560135,107.748039 191.169022,115.075104 
	C190.697342,115.678635 190.225662,116.282166 189.474945,116.980110 
z"/>
<path fill="#4890DA" opacity="1.000000" stroke="none" 
	d="
M207.163330,68.583160 
	C201.435715,70.599792 195.317200,71.434380 190.674301,76.591789 
	C186.063095,81.714027 185.232040,86.944084 185.398895,93.678589 
	C185.585342,101.203102 190.017365,105.289238 194.237762,110.498154 
	C193.768997,111.846451 193.158234,112.809341 192.247955,113.561707 
	C190.725128,111.826996 189.649399,110.149933 188.254562,108.803429 
	C179.195831,100.058548 179.238129,91.697151 183.782837,80.497498 
	C187.058441,72.425377 194.530869,68.950714 202.120667,65.952438 
	C203.731293,66.738182 205.341934,67.523926 207.163330,68.583160 
z"/>
<path fill="#B86FA6" opacity="1.000000" stroke="none" 
	d="
M218.565140,159.128906 
	C216.241806,158.153549 213.918472,157.178192 211.397400,155.647797 
	C215.405197,154.089279 219.871674,153.677094 223.762451,151.960236 
	C232.079208,148.290375 240.097977,143.945236 248.238815,139.876709 
	C249.489838,140.675903 250.740860,141.475098 251.805145,142.633102 
	C241.911835,151.056625 230.900543,156.448837 218.565140,159.128906 
z"/>
<path fill="#AA70B6" opacity="1.000000" stroke="none" 
	d="
M146.197586,111.267242 
	C146.272278,109.617851 146.975571,108.149017 146.716919,106.875557 
	C144.001190,93.504105 142.647980,80.260498 149.596573,67.626587 
	C151.739807,63.729740 154.052490,59.926079 156.644089,56.040459 
	C155.587524,60.168488 154.262360,64.368103 152.745300,68.497215 
	C147.706146,82.212746 144.159454,95.941734 150.844513,110.229507 
	C151.713715,112.087234 151.601562,114.404121 151.906799,116.956551 
	C150.039627,115.449348 148.209625,113.493927 146.197586,111.267242 
z"/>
<path fill="#4F8DD7" opacity="1.000000" stroke="none" 
	d="
M202.001495,65.663498 
	C194.530869,68.950714 187.058441,72.425377 183.782837,80.497498 
	C179.238129,91.697151 179.195831,100.058548 188.254562,108.803429 
	C189.649399,110.149933 190.725128,111.826996 191.987137,113.699409 
	C192.003418,114.385002 191.862289,114.661858 191.385742,114.976654 
	C178.560135,107.748039 173.450211,91.085716 181.480408,77.708519 
	C185.367828,71.232613 191.317764,66.061859 199.551086,64.049568 
	C200.566559,64.464478 201.224442,64.919518 202.001495,65.663498 
z"/>
<path fill="#C46C94" opacity="1.000000" stroke="none" 
	d="
M218.784790,159.399841 
	C230.900543,156.448837 241.911835,151.056625 251.986511,142.908676 
	C253.209930,143.326080 254.065201,143.826752 254.793732,144.786728 
	C251.090912,151.473892 244.731445,153.956268 238.806351,157.014587 
	C234.199921,159.392227 229.574066,161.732269 224.956863,164.089035 
	C222.972717,162.616287 220.988586,161.143539 218.784790,159.399841 
z"/>
<path fill="#AD70B3" opacity="1.000000" stroke="none" 
	d="
M248.193481,139.545456 
	C240.097977,143.945236 232.079208,148.290375 223.762451,151.960236 
	C219.871674,153.677094 215.405197,154.089279 211.107422,155.455276 
	C206.890335,152.515610 207.172424,150.788223 212.870651,148.303497 
	C217.759369,150.748199 221.828598,149.410324 225.735489,147.530396 
	C232.798416,144.131821 239.776154,140.556305 246.789474,137.054688 
	C247.242371,137.774521 247.695251,138.494370 248.193481,139.545456 
z"/>
<path fill="#BB6D9F" opacity="1.000000" stroke="none" 
	d="
M147.654358,57.087780 
	C147.437759,59.380222 147.503433,62.140774 146.294144,64.123840 
	C141.791656,71.507271 140.912628,79.567619 141.010971,87.885674 
	C141.080841,93.794205 141.292114,99.701057 141.127014,105.858719 
	C139.974899,105.590927 139.136063,105.073074 138.135513,103.877197 
	C136.924393,94.400024 135.567123,85.652725 138.758743,76.905891 
	C140.537613,72.030800 141.574402,66.884933 142.945602,61.861084 
	C144.414185,60.307049 145.882767,58.753017 147.654358,57.087780 
z"/>
<path fill="#CE6984" opacity="1.000000" stroke="none" 
	d="
M225.060989,164.373749 
	C229.574066,161.732269 234.199921,159.392227 238.806351,157.014587 
	C244.731445,153.956268 251.090912,151.473892 254.966431,145.037048 
	C256.398834,145.336060 257.531738,145.844086 258.862305,146.594025 
	C256.195892,149.886948 253.812881,153.730347 250.366669,155.822296 
	C243.423553,160.036896 235.901749,163.298172 228.243744,166.999268 
	C226.967560,166.250000 226.066345,165.454239 225.060989,164.373749 
z"/>
<path fill="#A574C0" opacity="1.000000" stroke="none" 
	d="
M246.691345,136.746658 
	C239.776154,140.556305 232.798416,144.131821 225.735489,147.530396 
	C221.828598,149.410324 217.759369,150.748199 213.227341,148.270325 
	C216.175354,146.095993 219.355011,144.199890 223.257874,142.159698 
	C231.762329,141.074738 238.225311,137.702087 243.205460,131.594086 
	C244.334702,133.208939 245.463959,134.823792 246.691345,136.746658 
z"/>
<path fill="#CE6984" opacity="1.000000" stroke="none" 
	d="
M130.978226,70.197319 
	C132.299911,69.422890 133.621597,68.648460 135.596893,68.035141 
	C135.833801,70.460526 135.188934,72.710190 135.042877,74.991798 
	C134.591660,82.040108 134.451859,89.110214 133.893021,96.148193 
	C133.781891,97.547752 132.348969,98.842346 131.525574,100.185349 
	C130.326065,99.735466 129.126541,99.285576 128.064301,98.328613 
	C129.127121,88.613457 130.052673,79.405388 130.978226,70.197319 
z"/>
<path fill="#C46C94" opacity="1.000000" stroke="none" 
	d="
M131.753967,100.454102 
	C132.348969,98.842346 133.781891,97.547752 133.893021,96.148193 
	C134.451859,89.110214 134.591660,82.040108 135.042877,74.991798 
	C135.188934,72.710190 135.833801,70.460526 135.921387,67.979355 
	C137.844467,65.897903 140.096695,64.033356 142.647247,62.014942 
	C141.574402,66.884933 140.537613,72.030800 138.758743,76.905891 
	C135.567123,85.652725 136.924393,94.400024 137.976776,103.626343 
	C135.980606,102.943298 133.981491,101.833076 131.753967,100.454102 
z"/>
<path fill="#CA6F8E" opacity="1.000000" stroke="none" 
	d="
M160.077362,36.000839 
	C161.193787,33.069706 162.378693,30.162397 163.408600,27.201174 
	C164.587692,23.810955 166.492447,21.188654 170.367798,21.107658 
	C174.482269,21.021666 176.585327,23.691782 177.439392,27.691469 
	C171.425644,30.730711 165.751511,33.365776 160.077362,36.000839 
z"/>
<path fill="#D96B75" opacity="1.000000" stroke="none" 
	d="
M130.664886,70.251556 
	C130.052673,79.405388 129.127121,88.613457 127.823891,98.109970 
	C126.000397,97.847076 124.554588,97.295746 123.220398,96.217087 
	C124.173805,87.992363 125.015579,80.294960 125.857353,72.597557 
	C127.355415,71.833633 128.853470,71.069710 130.664886,70.251556 
z"/>
<path fill="#AA70B6" opacity="1.000000" stroke="none" 
	d="
M157.371994,55.996220 
	C158.133957,53.940311 158.809235,51.345318 160.480942,49.914658 
	C166.736832,44.560844 173.318726,39.587978 179.943359,34.146507 
	C180.783478,35.285545 181.458618,36.750343 182.180817,38.564495 
	C172.953491,40.902061 167.331528,48.007191 160.932617,54.046242 
	C160.046539,54.882484 158.814590,55.352253 157.371994,55.996220 
z"/>
<path fill="#BB6D9F" opacity="1.000000" stroke="none" 
	d="
M159.882141,36.292683 
	C165.751511,33.365776 171.425644,30.730711 177.461304,28.042088 
	C177.963058,28.323027 178.103287,28.657528 178.282257,29.259245 
	C174.442551,32.552872 170.645737,35.692360 166.659729,38.569748 
	C163.498703,40.851597 160.105865,42.812313 156.477386,44.958359 
	C157.321518,42.195572 158.504211,39.390049 159.882141,36.292683 
z"/>
<path fill="#9973CA" opacity="1.000000" stroke="none" 
	d="
M243.174942,131.300598 
	C238.225311,137.702087 231.762329,141.074738 223.584076,142.034546 
	C225.315155,139.508957 227.443268,136.964386 230.036835,134.081787 
	C230.750107,133.510712 230.898682,133.225891 230.948059,132.889297 
	C230.948059,132.889297 230.921082,132.966263 231.293991,132.967407 
	C235.127060,131.638733 238.587219,130.308945 242.047379,128.979141 
	C242.413055,129.655136 242.778732,130.331131 243.174942,131.300598 
z"/>
<path fill="#AA70B6" opacity="1.000000" stroke="none" 
	d="
M158.312195,129.334320 
	C159.564194,129.557541 161.012207,129.926697 162.162308,130.725037 
	C166.987656,134.074524 171.723831,137.552490 176.860947,141.035950 
	C177.028259,141.936661 176.827301,142.784821 175.971863,143.825378 
	C173.824127,143.460938 172.282990,143.005203 170.847580,142.326050 
	C167.933701,140.947372 165.076965,139.447861 162.196686,137.998138 
	C160.921524,135.224640 159.646347,132.451157 158.312195,129.334320 
z"/>
<path fill="#DE736A" opacity="1.000000" stroke="none" 
	d="
M230.861252,171.616272 
	C234.339050,169.568008 237.797760,167.691727 241.395401,166.136963 
	C243.607025,165.181183 246.031113,164.717041 248.757462,164.044403 
	C247.482300,166.513306 245.809479,168.969940 243.539917,171.707016 
	C239.502213,173.059357 236.061249,174.131241 232.620270,175.203140 
	C232.047104,174.110077 231.473938,173.016998 230.861252,171.616272 
z"/>
<path fill="#E37D63" opacity="1.000000" stroke="none" 
	d="
M119.976837,95.064163 
	C118.492004,94.499542 117.007172,93.934921 115.322914,92.739075 
	C116.057953,87.817894 117.074120,83.542542 117.847008,79.223656 
	C117.976845,78.498062 117.054176,77.584122 116.617821,76.757202 
	C117.833199,76.138771 119.048576,75.520332 120.623077,75.356277 
	C120.647072,82.228493 120.311958,88.646332 119.976837,95.064163 
z"/>
<path fill="#DE736A" opacity="1.000000" stroke="none" 
	d="
M120.171509,95.294037 
	C120.311958,88.646332 120.647072,82.228493 120.968506,75.331619 
	C122.363289,74.155106 123.771759,73.457626 125.518791,72.678848 
	C125.015579,80.294960 124.173805,87.992363 122.981766,95.974152 
	C121.876389,96.013657 121.121284,95.768784 120.171509,95.294037 
z"/>
<path fill="#4F8DD7" opacity="1.000000" stroke="none" 
	d="
M228.368790,92.011940 
	C227.711166,89.424614 227.473022,86.806213 227.091446,84.208893 
	C226.830444,82.432205 226.369522,80.684883 225.995209,78.525879 
	C230.308563,77.614777 232.603485,80.109383 233.481552,83.804306 
	C234.422562,87.764114 232.464615,90.507950 228.368790,92.011940 
z"/>
<path fill="#8B79CD" opacity="1.000000" stroke="none" 
	d="
M242.023514,128.603821 
	C238.587219,130.308945 235.127060,131.638733 231.264557,132.939194 
	C231.493652,131.205734 231.820801,129.287201 232.832718,127.851158 
	C234.132126,126.007118 235.981659,124.550720 237.594208,122.927338 
	C239.062683,124.694405 240.531158,126.461464 242.023514,128.603821 
z"/>
<path fill="#E78963" opacity="1.000000" stroke="none" 
	d="
M232.715240,175.560730 
	C236.061249,174.131241 239.502213,173.059357 243.329773,171.980011 
	C243.145935,173.323029 242.806198,174.846634 241.952179,175.984161 
	C240.602722,177.781631 238.908340,179.320175 237.359940,180.968292 
	C235.843353,179.284973 234.326782,177.601654 232.715240,175.560730 
z"/>
<path fill="#E98A5A" opacity="1.000000" stroke="none" 
	d="
M116.293449,76.800697 
	C117.054176,77.584122 117.976845,78.498062 117.847008,79.223656 
	C117.074120,83.542542 116.057953,87.817894 115.076668,92.508553 
	C113.820435,92.450447 112.611015,91.991661 111.245636,90.883514 
	C111.728317,86.236137 112.366974,82.238106 113.005630,78.240082 
	C113.993446,77.774788 114.981262,77.309486 116.293449,76.800697 
z"/>
<path fill="#B46FAA" opacity="1.000000" stroke="none" 
	d="
M162.223938,138.347565 
	C165.076965,139.447861 167.933701,140.947372 170.847580,142.326050 
	C172.282990,143.005203 173.824127,143.460938 175.713837,144.030930 
	C172.183228,148.707031 167.528595,148.597824 164.518188,143.669144 
	C163.575607,142.125931 162.996613,140.360626 162.223938,138.347565 
z"/>
<path fill="#EF9957" opacity="1.000000" stroke="none" 
	d="
M112.667648,78.257538 
	C112.366974,82.238106 111.728317,86.236137 111.040710,90.630615 
	C105.702263,86.987114 106.202377,82.220329 112.667648,78.257538 
z"/>
<path fill="#8B79CD" opacity="1.000000" stroke="none" 
	d="
M179.382538,52.956093 
	C180.957703,50.771656 182.915390,48.544685 185.026947,45.979095 
	C186.149429,47.193092 187.118057,48.745712 188.085663,50.646084 
	C185.311447,51.633739 182.538254,52.273651 179.382538,52.956093 
z"/>
<path fill="#AA70B6" opacity="1.000000" stroke="none" 
	d="
M157.057526,126.297066 
	C157.270081,126.293411 157.539993,126.588493 157.857605,127.191956 
	C157.641815,127.198830 157.378357,126.897316 157.057526,126.297066 
z"/>
<path fill="#8B79CD" opacity="1.000000" stroke="none" 
	d="
M230.716339,132.994843 
	C230.898682,133.225891 230.750107,133.510712 230.298584,133.878006 
	C230.224777,133.708298 230.354691,133.404343 230.716339,132.994843 
z"/>
<path fill="#3197DE" opacity="1.000000" stroke="none" 
	d="
M209.262024,100.660507 
	C209.181625,100.417427 209.384476,100.231987 209.856262,100.068604 
	C209.960236,100.315002 209.766922,100.524162 209.262024,100.660507 
z"/>
<path fill="#FDFDFF" opacity="1.000000" stroke="none" 
	d="
M871.868286,131.749237 
	C871.035278,144.723831 867.438843,155.894485 854.196533,160.010773 
	C848.960388,161.638382 842.693909,161.383865 837.194580,160.370041 
	C830.314026,159.101608 826.520508,153.318222 826.003418,146.214325 
	C825.371582,137.534622 828.016113,132.301102 834.954102,128.975296 
	C837.182678,127.907005 839.559631,127.033272 841.961853,126.462425 
	C851.697632,124.148842 861.469666,121.987854 871.879578,119.622612 
	C871.879578,123.149872 871.879578,127.215927 871.868286,131.749237 
z"/>
<path fill="#FEFEFF" opacity="1.000000" stroke="none" 
	d="
M689.467102,152.466446 
	C679.634155,161.358704 668.415771,161.930939 656.922119,158.380402 
	C645.614624,154.887360 640.214966,145.824783 639.116638,134.703522 
	C638.259216,126.020500 638.107849,117.046791 639.298157,108.430954 
	C641.425476,93.032646 652.217346,84.255569 667.395813,84.015923 
	C683.601685,83.760056 693.560547,91.445000 697.122681,107.064980 
	C699.490784,117.449440 699.756531,127.965393 696.833740,138.178925 
	C695.417175,143.128830 692.152405,147.549805 689.467102,152.466446 
z"/>
<path fill="#8B79CD" opacity="1.000000" stroke="none" 
	d="
M161.998871,105.591385 
	C160.972534,104.128136 159.288681,102.337013 159.046234,100.368370 
	C158.381531,94.971130 158.208893,89.500923 158.129776,84.055412 
	C158.115646,83.083130 159.482452,82.090790 160.604004,81.053612 
	C160.997192,83.722916 160.891098,86.451447 161.021500,89.168633 
	C161.277817,94.509933 161.665588,99.844917 161.998871,105.591385 
z"/>
<path fill="#8B79CD" opacity="1.000000" stroke="none" 
	d="
M161.315063,77.836601 
	C161.667892,75.499954 162.125473,72.920265 163.039047,70.513680 
	C165.840698,63.133293 170.807190,57.453369 177.659393,53.035591 
	C177.501419,54.001774 177.244965,55.298950 176.455612,55.952587 
	C169.415817,61.781933 165.262421,69.541985 161.315063,77.836601 
z"/>
</svg>